<?xml version="1.0" encoding="UTF-8"?><svg id="Layer_2" xmlns="http://www.w3.org/2000/svg" viewBox="0 0 301.86 60.21"><defs><style>.cls-1{fill:#fff;}</style></defs><g id="Layer_1-2"><path class="cls-1" d="M22.29,14.89c2.73-1.09,6.44-2.73,10.06-3.55,3.63-.82,5.62-.7,6.36-.51.74.19.94-.16.59-.66-.35-.51-.89-1.46-2.81-1.4-2.5.08-8.92,1.09-15.83,4.17-5.85,2.61-6.63,3.16-9.67,4.52-3.35,1.5-7.64,3.31-9.09,2.73-1.08-.44-1.25-1.4-1.68-1.13-.43.27-.31,1.33,1.21,2.46,1.52,1.13,3.28,1.83,7.57-.43,2.95-1.55,6.83-3.38,9.86-4.73-.35,1.59-1.37,6.13-2.14,8.67-.94,3.12-1.91,7.88-3.47,10.14-1.36,1.97-3.04,3.55-4.25,3.24-1.21-.31-1.52-4.06.08-7.41,1.6-3.35,3.74-5.58,4.21-6.28.47-.7.94-1.36,1.48-1.83.55-.47,1.21-.86.35-1.17-.86-.31-2.07.04-3.71,1.52-1.64,1.48-4.84,4.72-6.16,10.41-1.33,5.69,2.11,5.81,4.1,5.89,1.99.08,5.66-1.01,7.61-6.24,1.87-5.01,4.45-15.17,5.01-18.27.12-.05.23-.09.34-.14Z"/><path class="cls-1" d="M55.95,13.33c-.78-.74-1.68-.78-1.87-.31-.2.47-1.33,2.18-2.15,3.39-.82,1.21-2.54,3.86-3.43,5.27-.9,1.4-1.13,2.34-1.44,2.11-.31-.23.31-4.29,2.38-7.33,2.07-3.04,3.39-3.74,3.94-3.9.55-.16,1.05-.47.47-.9-.59-.43-1.44-.7-2.42-.35-.97.35-3,1.44-4.88,4.68-1.87,3.24-2.18,4.52-2.38,5.77,0,0-1.79,3-2.3,2.81,0,0,1.87-7.22,2.5-8.89.62-1.68.9-2.73-.27-3.2-1.17-.47-1.25-.31-1.95.94-.7,1.25-1.68,2.22-3.43,5.69-1.75,3.47-2.53,4.64-2.53,4.64,0,0,1.17-4.8.62-5.3-.55-.51-1.44-1.29-1.99-.43-.55.86-1.72,3.35-2.61,5.3-.9,1.95-2.69,6.04-2.69,6.04,0,0,2.69-8.77,1.72-9.44-.97-.66-1.6-.97-1.95-.23-.35.74-2.53,4.56-3.55,6.4-1.01,1.83-2.42,4.52-2.42,4.52,0,0,1.17-4.02,1.68-5.69.51-1.68,1.25-3.71.7-4.13-.55-.43-1.72-1.29-2.03-.58,0,0-1.36,3.51-2.46,7.33-1.09,3.82-1.25,5.81-.74,6.44.51.62,1.95,1.05,2.34.39.39-.66,1.44-3.67,2.46-5.81,1.01-2.14,1.44-3.47,1.91-3.04,0,0-.97,4.99-.43,5.69.55.7,2.15,2.14,2.85.47.7-1.68,1.87-4.68,2.73-6.75.86-2.07,1.05-2.92,1.4-2.65,0,0-1.95,6.44-1.52,6.9.43.47,1.56,1.52,2.65.39,1.09-1.13,1.91-3.74,2.85-5.85.94-2.11,2.77-5.66,3.04-5.46,0,0-2.07,7.68-2.03,8.35.04.66,1.87,2.15,2.65,1.13.78-1.01,2.69-4.99,2.69-4.99,0,0,.27,2.42,1.29,3.2,1.01.78,1.64.74,2.26-.23.62-.98,2.46-4.41,3.86-6.67,1.4-2.26,1.72-2.54,1.79-2.42.08.12-1.95,7.57-3.12,10.18-1.17,2.61-3.08,5.62-4.68,5.03-1.6-.58-1.37-2.03-1.56-2.69-.2-.66-1.05-1.4-1.25-.78-.19.62-.62,2.5.7,3.74,1.33,1.25,4.76,1.4,6.28.04,1.52-1.37,2.34-2.61,3.35-5.23,1.01-2.61,1.4-4.29,2.3-7.37.9-3.08,1.44-5.46.66-6.2Z"/><path class="cls-1" d="M87.07,11.73c-.8-.59-2.58-1.93-9.77-.05-.11-.83-.5-1.39-1.19-1.93-1.72-1.37-1.95-1.17-2.11-.86-.14.29.77,1.34.67,3.55-.04.01-.08.02-.12.04-2.85.9-5.46,1.84-7.59,2.68.55-.61,1.09-1.37,1.51-2.29,1.33-2.93,1.52-4.88.82-5.69-.7-.82-1.37-1.09-2.3-.66-.94.43-2.92,1.99-4.02,4.45-1.09,2.46-1.75,6.36-1.75,7.41,0,0-.78.97-1.48,2.03-.7,1.05-.86,1.33-.86.47s.55-4.29,2.38-10.34c1.83-6.04,2.5-7.99,2.5-7.99,0,0,.47-.86-.23-1.52-.7-.66-1.4-1.56-1.87-.55-.47,1.01-3.04,8.7-4.37,14.08-1.33,5.38-1.44,6.79-.94,7.96.51,1.17,2.42,1.33,3.2.12.78-1.21,2.11-3.2,2.11-3.2,0,0,1.05,3.08,4.88,4.6,3.82,1.52,7.88-.35,9.52-5.93.66-2.26,1.09-3.84,1.24-5.01,5.41-.78,8,.02,8.63.79.7.86,1.4,1.72,1.75.97.35-.74.31-2.46-.58-3.12ZM66.05,11.06c.86-1.83,1.72-2.22,1.72-2.22-1.21,5.3-3.08,6.75-3.08,6.75-.12-.58.51-2.69,1.37-4.52ZM71.74,20.81c-1.17,1.64-2.57,2.42-4.33,1.95-1.75-.47-3.69-2.64-2.89-5.63,2.02-1,5.76-2.65,10.03-3.57-.42,2.54-1.72,5.72-2.81,7.25Z"/><path class="cls-1" d="M27.16,56.89c2.85-.87,5.72-2.63,7.45-4.49,2.65-2.85,2.22-5.3,1.44-6.83-.78-1.52-2.42-1.95-2.42-1.95,0,0,3.39-1.83,3.55-4.06.16-2.22-2.11-4.09-3-4.56-.35-.18-1.39-.21-2.87-.02.15-.46.28-.84.37-1.11,0,0,.39-.35-.27-.82-.66-.47-1.52-.98-1.99-.08-.26.5-.59,1.06-1.13,2.58-1.93.47-4.15,1.2-6.44,2.26-5.89,2.73-7.96,6.16-7.96,6.16-.12.31-.31,1.02.9,1.25,1.25.23,3.28-3.16,9.44-5.62,1.13-.45,2.16-.82,3.12-1.12-.24.82-.51,1.76-.82,2.88-1.34,4.9-2.02,10.5-2.11,13.81-2.62.56-4.63.06-5.69-.7-1.68-1.21-1.83-2.46-1.99-3-.16-.55-.39-.04-.39-.04-.39,2.85,2.57,5.5,6.44,5.97.54.07,1.11.07,1.7.02,0,.03,0,.07.01.1.35,2.07,1.33,2.73,2.11,2.69.78-.04,1.76.04,1.33-.82-.29-.57-.69-.9-.78-2.5ZM29.66,40.24c.25-.86.52-1.74.79-2.57,2.84-.6,4.42-.44,4.71-.2.47.39.39.82-.74,2.07-1.13,1.25-2.03,1.72-4.02,3.12-.75.53-1.2.71-1.52.8.27-1.3.54-2.42.78-3.22ZM27.32,53.34c.21-2.03.53-4.21.87-6.24.83-.79,1.67-1.06,2.87-1.25,1.48-.23,3.35-.51,3.67.27.31.78-.08,3.55-5.15,6.82-.81.52-1.59.95-2.35,1.29.02-.28.05-.58.08-.9Z"/><path class="cls-1" d="M80.09,32.75c-.7-.98-1.87-2.15-3.16-2.26-1.29-.12-4.6.39-11.43,5.38,0,0-2.81-.86-5.15-.74,0,0,.2,0,1.01-.94.82-.94,1.87-2.07,1.87-2.07,0,0,.82.74,1.6,0,.78-.74,1.4-1.79,1.56-2.92.16-1.13.39-1.29-.82-2.3-1.21-1.01-1.91-1.72-4.95-.78-3.04.94-3.94,2.93-4.8,4.56-.86,1.64-.27,3.51.62,4.17.9.66,1.99,1.09,1.99,1.09l-4.68,5.03s.27-3.9.43-5.5c.16-1.6.35-3.28-.43-3.63-.78-.35-1.95-.62-2.11-.08-.16.55-.31,3.55-1.25,6.44-.94,2.89-2.03,6.2-2.42,6.75-.39.55-.27.08-.12-1.01.16-1.09.59-4.52.82-5.62.23-1.09.74-1.91.08-2.34-.66-.43-1.37-.78-1.6-.35-.18.33-1.05,1.98-2.42,3.04.13-1.44.07-2.78-.35-3.78-1.44-3.47-4.6-2.5-5.11-2.03-.49.45-2.16,4.1-.15,6.53-.51,1.16-1,2.59-1.3,3.84-.51,2.15-.43,5.3,1.25,6.2,1.68.9,2.5.55,3.24-1.52.47-1.3,1.74-4.75,2.25-8,.14-.1.24-.18.32-.23.59-.43,1.05-.82.82-.08-.23.74-1.17,4.76-.94,6.24.23,1.48.98,1.99,1.83,2.15.86.16,1.48.19,1.83-1.33.35-1.52,2.15-6.98,2.26-6.94.12.04-.08,3.7-.62,5.93-.55,2.22-1.79,3.78-2.34,4.41-.55.62-.94.78-.62,1.13.31.35.9.47,1.29-.23.39-.7,1.4-2.57,1.4-2.57,0,0-.9,2.65-1.52,3.08-.05.04-.11.08-.16.12-.14.03-.28.07-.41.1-.4.1-.88.24-1.42.41,0,0,0,0,0,0-.9-.62-.66-1.99-.66-1.99,0,0,.2-.66-.58-1.01-.78-.35-.86-.16-1.13.66-.24.71-.09,2.08.5,2.97-4.48,1.57-10.61,4.27-10.07,5.82,0,0,.67,1.78,1.74,1.11,1.02-.63,4.22-3.67,10.51-5.66.97.23,2.06.23,2.82-.22.34-.21.69-.47,1.02-.79,5.09-1.11,7.71-.67,8.06.12.41.93.7,1.93,1.67,1.81.96-.11,1.19-1.26.7-2.07-.48-.81-.81-1.67-2.44-2.04-1.07-.24-3.79-.18-6.56.15.33-.69.6-1.49.75-2.41.47-2.69.9-5.23.9-5.23,0,0,2.38-2.92,3.51-4.29,1.13-1.37,2.34-2.73,2.34-2.73,0,0,1.52,0,2.61.12,1.09.12,2.46.27,1.76.74-.7.47-6.08,5.11-6.55,5.66-.47.55-.74.74-.31,1.09.43.35.47.55,1.79-.59,1.33-1.13,5.69-4.84,5.69-4.84,0,0,.35.86-.35,2.53-.7,1.68-2.26,3.47-3.35,3.98-1.09.51-3.43,1.09-4.68.27-1.25-.82-1.48-.94-1.99-.78-.51.16-.35.27.39,1.17.74.9,4.41,2.34,7.1,1.68,2.69-.66,4.84-3.04,5.5-4.99.66-1.95.55-3.74-.43-5.3,0,0,2.38-2.07,5.66-3,3.28-.94,5.07-1.29,6.55-.74,1.48.55,2.03.43,1.33-.55ZM41.83,43.9c-.82,2.85-1.29,5.03-1.4,3.59-.08-1.04-.29-3.62.75-6.73.52.13,1.01.13,1.47.04-.23.99-.51,2.05-.82,3.1ZM42.92,39.53c-.5.11-.93.13-1.3.05.36-.85.82-1.73,1.41-2.62,0,0,.04-.35-.74-.58-.78-.23-1.36.23-2.11,1.13-.05.06-.11.14-.16.22-.04-.18-.08-.37-.11-.57-.27-1.99.31-4.09,1.48-3.78,1.17.31,1.83,1.76,1.87,3.28.02.71-.12,1.72-.35,2.88ZM58.52,33.29c0-1.33,1.25-3.82,2.92-4.91,1.68-1.09,2.81-1.52,2.77-.39-.04,1.13-1.17,2.5-1.79,3.16-.62.66.47.78.47.78l-3.51,2.92c-.19-.04-.86-.23-.86-1.56Z"/><path class="cls-1" d="M118.58,27.33l-4.21,2.76,4.21,2.78v1.41s-5.25-3.52-5.25-3.52l-5,3.28v-1.4s3.99-2.55,3.99-2.55l-3.99-2.53v-1.4s5.01,3.23,5.01,3.23l5.23-3.48v1.41Z"/><path class="cls-1" d="M159.42,13.36c-9.25,0-16.75,7.5-16.75,16.75s7.5,16.75,16.75,16.75,16.75-7.5,16.75-16.75h0c-.01-9.25-7.5-16.74-16.75-16.75ZM159.42,14.92c8.38,0,15.18,6.79,15.19,15.17,0,3.17-.99,6.27-2.84,8.84l-11.73-15.85h-1.25l-11.73,15.85c-4.88-6.82-3.31-16.3,3.51-21.18,2.58-1.85,5.67-2.84,8.84-2.84ZM148.07,40.19l10.56-14.28v19.36c-4.06-.21-7.87-2.04-10.56-5.08ZM160.19,45.27v-19.36l10.57,14.28c-2.7,3.04-6.51,4.87-10.57,5.08Z"/><path class="cls-1" d="M191.05,16.24h2.25l12.9,19.62c1.67,2.52,3.22,5.24,3.22,5.24h.08v-24.86h1.94v27.77h-2.14l-12.73-19.19c-1.56-2.33-3.5-5.55-3.5-5.55h-.08v24.74h-1.94v-27.77Z"/><path class="cls-1" d="M227.56,16.24h2.29l10.76,27.77h-2.1l-3.42-8.89h-12.78l-3.42,8.89h-2.06l10.72-27.77ZM222.98,33.4h11.46l-4.2-11.03c-.62-1.59-1.52-4.12-1.52-4.12h-.08s-.77,2.37-1.43,4.12l-4.23,11.03Z"/><path class="cls-1" d="M246.03,16.24h11.38c2.21,0,4.08.62,5.4,1.79,1.36,1.16,2.14,2.91,2.14,5.13,0,3.15-1.21,5.05-4.08,6.14v.08c3.26,1.01,5.28,3.3,5.28,6.95,0,2.33-.66,4.16-1.98,5.48-1.4,1.36-3.53,2.21-6.33,2.21h-11.81v-27.77ZM257.61,28.67c3.42,0,5.28-2.21,5.28-5.36,0-3.42-2.14-5.24-5.44-5.24h-9.4v10.61h9.55ZM257.68,42.14c2.21,0,3.88-.66,4.93-1.71.97-.97,1.48-2.33,1.48-4.19,0-3.61-2.45-5.79-6.25-5.79h-9.79v11.69h9.63Z"/><path class="cls-1" d="M272.92,16.24h2.02v27.77h-2.02v-27.77Z"/><path class="cls-1" d="M281.51,35.23h2.06c.19,4.7,3.57,7.49,8.74,7.49,4.23,0,7.46-2.29,7.46-6.21s-2.14-5.01-8.74-6.25c-5.28-.97-8.51-2.6-8.51-7.22,0-4.35,3.73-7.34,9.2-7.34s8.89,3.18,9.28,7.73h-2.02c-.39-3.88-3.34-5.94-7.22-5.94-4.54,0-7.18,2.33-7.18,5.51,0,3.42,2.21,4.5,7.69,5.51,5.4,1.01,9.59,2.29,9.59,7.85,0,4.74-3.77,8.16-9.52,8.16-6.95,0-10.52-3.96-10.83-9.28Z"/></g></svg>