<?xml version="1.0" encoding="UTF-8"?><svg id="Layer_2" xmlns="http://www.w3.org/2000/svg" viewBox="0 0 546.38 227.07"><defs><style>.cls-1,.cls-2{fill:#fff;}.cls-2{stroke:#fff;stroke-miterlimit:10;stroke-width:7.63px;}</style></defs><g id="Layer_1-2"><path class="cls-2" d="M3.84,147.86L4.64,4.27h45.87c13.09,0,24.38,4.04,33,12.05,8.38,8.01,15.86,28.31,15.79,39.65-.06,11.41-7.68,31.04-16.21,38.91-8.91,7.94-20.62,12.98-33.87,12.98h-16.74l-.29,40H3.84ZM52.04,31.98h-18.14l-.21,51.42,18.16.07c9.24,0,21.45-7.34,21.45-26.51s-12.1-24.99-21.25-24.99Z"/><path class="cls-2" d="M106.25,4.27h28.36l-.35,60.29h38.9l.27-60.29h28.36l-.87,143.59h-28.28l.33-55.59h-38.9l-.33,55.59h-28.28l.8-143.59Z"/><path class="cls-2" d="M215.87,3.99h80.12l-.17,27.85h-50.37l-.13,30.27h38.67l-.17,27.85h-38.66l-.13,32.52h50.37l-.19,25.52h-80.12l.79-144.01Z"/><path class="cls-2" d="M311.98,3.99l67.59,63.03.44-63.03h29.37l-.89,143.87h-6.35l-67.4-83.43-.48,83.43h-29.21l.82-143.87h6.12Z"/><path class="cls-2" d="M542.57,90.49v-28.57c.14-15.87-5.95-29.69-17.89-41.03-12.63-11.34-25.82-17.08-43.65-17.08s-31.13,5.74-43.92,17.08c-12.07,11.41-18.16,24.78-18.31,40.66,0,.32.02,1.02.02,1.8l-.02,27.55c-.12,15.83,5.89,29.62,17.78,40.86,12.51,11.13,25.69,16.8,43.6,16.87,17.82,0,31.15-5.67,43.88-16.87,12.1-11.27,18.34-25.01,18.48-40.96,0-.11-.01-.21-.01-.32h.02ZM502.84,111.72c-6.93,5.88-12.86,8.72-22.39,8.72s-15.63-2.91-22.4-8.72c-6.79-5.88-10.06-12.76-9.98-21.05,0-.34-.03-1.1-.07-1.95l.06-25.3s0-1.08,0-1.64c.02-8.22,3.4-15.16,10.31-21.12,6.77-5.88,12.7-8.71,22.47-8.71s15.46,2.83,22.25,8.71c6.88,5.96,10.24,12.9,10.15,21.12v28.89c-.08,8.29-3.46,15.24-10.4,21.05Z"/><path class="cls-1" d="M45.94,175.2v50.1h-13.99v-18.87h-15.69v18.87H2.24v-50.1h14.02v18.8h15.69v-18.8h13.99Z"/><path class="cls-1" d="M54.66,207.09v-31.89h14.12v31.86c0,4.17,3.77,6.93,7.76,6.93s7.83-2.83,7.83-6.93v-31.86h14.12v31.89c0,11.5-9.83,19.61-21.92,19.61s-21.92-8.11-21.92-19.61Z"/><path class="cls-1" d="M152.85,175.13v50.66h-4.46l-27.16-24.96v24.49h-14.02v-50.63h4.52l27.06,24.87v-24.43h14.05Z"/><path class="cls-1" d="M198.2,187.63h-12.65v37.67h-14.05v-37.67h-12.68v-12.43h39.38v12.43Z"/><path class="cls-1" d="M220.75,175.2h15.17l7.31,22.94,10.81-22.84h1.05l10.81,22.78,7.27-22.88h15.17l-17.63,50.42h-3.87l-12.35-24.77-12.25,24.77h-3.83l-17.66-50.42Z"/><path class="cls-1" d="M293.61,175.2h14.02v50.1h-14.02v-50.1Z"/><path class="cls-1" d="M352.98,187.63h-12.65v37.67h-14.05v-37.67h-12.68v-12.43h39.38v12.43Z"/><path class="cls-1" d="M402.65,175.2v50.1h-13.99v-18.87h-15.69v18.87h-14.02v-50.1h14.02v18.8h15.69v-18.8h13.99Z"/><path class="cls-1" d="M431.85,207.09v-31.89h14.12v31.86c0,4.17,3.77,6.93,7.76,6.93s7.83-2.83,7.83-6.93v-31.86h14.12v31.89c0,11.5-9.83,19.61-21.92,19.61s-21.92-8.11-21.92-19.61Z"/><path class="cls-1" d="M481.65,216.82l8.48-7.89c2.2,3.08,6.29,4.94,10.71,4.94,2.98,0,5.9-1.03,5.9-3.08,0-2.58-5.41-4.85-10.58-7.02-6.68-2.74-12.42-6.9-12.42-14.45,0-8.67,8.68-14.86,18.71-14.86,8.06,0,14.35,3.61,16.41,8.55l-8.09,7.4c-1.57-2.64-5.63-3.79-8.16-3.79-2.88,0-4.95,1.4-4.95,3.11,0,2.3,3.73,3.05,9.44,5.31,8.25,3.29,13.73,8.08,13.73,15.48,0,9.54-9.37,15.48-19.95,15.48-8.68,0-16.58-3.64-19.23-9.17Z"/><path class="cls-1" d="M527.55,175.2h16.25l-2.26,32.61h-11.63l-2.36-32.61ZM527.55,219.74c0-3.98,3.74-7.18,8.12-7.18s8.26,3.39,8.26,7.34-3.73,7.18-8.19,7.18-8.19-3.26-8.19-7.33Z"/></g></svg>