<svg width="67" height="68" viewBox="0 0 67 68" fill="none" xmlns="http://www.w3.org/2000/svg">
<path d="M8.76862 26.3931C10.0557 26.397 11.2893 26.9096 12.1994 27.8197C13.1095 28.7298 13.6222 29.9634 13.626 31.2505V63.1427C13.6242 64.4305 13.112 65.6649 12.2014 66.5755C11.2908 67.4861 10.0564 67.9983 8.76862 68.0001H1.21434C0.892556 67.9991 0.584181 67.871 0.356639 67.6435C0.129133 67.4159 0.000942112 67.1075 0 66.7857V27.6075C0.00094212 27.2857 0.129129 26.9773 0.356639 26.7498C0.584181 26.5222 0.892556 26.3941 1.21434 26.3931H8.76862ZM34.6333 0.0165484C35.2875 -0.0454156 35.9466 0.0673548 36.5433 0.342731C40.6724 2.26152 42.8459 4.87295 42.8459 7.897V28.5791H59.3269C60.3912 28.5821 61.4424 28.8128 62.4099 29.2561C63.3777 29.6995 64.2396 30.3451 64.9369 31.1493C65.6341 31.9536 66.1511 32.8981 66.4528 33.9189C66.7545 34.9398 66.8337 36.0136 66.6857 37.0678L64.4152 53.0379C63.8959 56.5816 62.1219 59.8213 59.4163 62.1681C56.7107 64.5149 53.2527 65.8136 49.6711 65.8269H25.2605C22.6856 65.8165 20.2175 64.7956 18.3871 62.9845C17.7224 62.3148 16.9295 61.7862 16.0557 61.4303V32.6712C28.7426 29.2286 32.4457 13.4632 31.2841 4.10759C31.2157 3.4541 31.3221 2.79395 31.5916 2.1947C31.8611 1.59544 32.2844 1.07793 32.8187 0.695441C33.353 0.312962 33.9792 0.0785269 34.6333 0.0165484Z" fill="currentColor"/>
</svg>
