<svg width="41" height="87" viewBox="0 0 41 87" fill="none" xmlns="http://www.w3.org/2000/svg">
<path d="M40.9746 81.8297C40.7715 84.6929 31.6836 87 20.4915 87C9.29946 87 0.211544 84.6929 0.00846175 81.8297H0.00564117V81.7897C0.00564117 81.7698 0 81.7527 0 81.7327C0 81.6871 0 81.6415 0.00564117 81.5958V34.1846C0.00564117 34.0933 0.0112823 34.0049 0.0253853 33.9194C0.0225647 33.9165 0.0225647 33.9137 0.0253853 33.9108C0.0507705 33.7112 0.107182 33.523 0.188979 33.349C0.547193 34.0734 1.48081 34.7549 2.86853 35.3567C6.43375 36.9081 12.9972 37.9461 20.5056 37.9461C28.014 37.9461 34.6029 36.9023 38.1625 35.3481C39.4825 34.772 40.3879 34.1247 40.7715 33.4374C40.8731 33.6513 40.9379 33.8851 40.9633 34.1332V34.1418C40.9718 34.2102 40.9746 34.2815 40.9746 34.3528V81.5759C40.9803 81.6272 40.9831 81.6814 40.9831 81.7327C40.9831 81.7612 40.9774 81.7897 40.9746 81.8183V81.8297Z" fill="currentColor"/>
<path d="M40.9802 5.19314C40.9435 4.90796 40.8504 4.64274 40.7066 4.40889C40.7066 4.40319 40.7009 4.40033 40.6981 4.39463C40.6783 4.36326 40.6586 4.33189 40.6332 4.30052C40.6078 4.2663 40.5825 4.22923 40.5542 4.195C40.526 4.15508 40.4922 4.11801 40.4583 4.08378C40.4499 4.07523 40.4414 4.06382 40.433 4.05527C38.3062 1.73105 30.1914 0 20.5027 0C9.19218 0 0.0224609 2.35844 0.0224609 5.26443C0.0224609 5.31861 0.0252815 5.37565 0.0337433 5.42984C0.0309227 5.43839 0.0309227 5.44695 0.0309227 5.4555V29.4477C0.0309227 29.4734 0.0309227 29.4991 0.0337433 29.5219V29.5304C0.0591285 30.2006 0.414522 30.7824 0.93633 31.1246C0.913765 31.1446 0.891201 31.1645 0.868636 31.1845C1.11121 31.3955 1.40455 31.6008 1.74302 31.7976C1.96866 31.9317 2.21688 32.0628 2.48201 32.1883C2.60612 32.2482 2.73586 32.3052 2.86843 32.3623C6.43365 33.9137 12.9971 34.9517 20.5055 34.9517C28.0139 34.9517 34.6028 33.908 38.1624 32.3537C38.2865 32.2995 38.4078 32.2425 38.5262 32.1883C38.7914 32.0628 39.0396 31.9317 39.2652 31.7976C39.6037 31.6008 39.897 31.3955 40.1396 31.1845L40.0804 31.1332C40.5684 30.8223 40.9125 30.2976 40.983 29.6901C40.9943 29.6074 40.9999 29.5276 40.9999 29.4477V5.4555C40.9999 5.3671 40.9943 5.27869 40.9802 5.19314ZM20.4914 1.79378C26.0988 1.79378 31.1222 2.44114 34.49 3.45924C37.2175 4.28341 38.8619 5.34999 38.8619 6.51637C38.8619 7.05536 38.5093 7.57439 37.8634 8.05635C37.3134 8.46701 36.5518 8.852 35.6098 9.19992C32.2956 10.4319 26.7616 11.239 20.4914 11.239C14.2213 11.239 8.68729 10.4319 5.37311 9.19992C4.41411 8.84344 3.64127 8.45275 3.08844 8.03639C2.46227 7.56013 2.1238 7.04966 2.1238 6.51923C2.1238 5.35284 3.7682 4.28626 6.4957 3.46209C9.86348 2.444 14.8869 1.79664 20.4943 1.79664L20.4914 1.79378Z" fill="currentColor"/>
</svg>
