<svg width="81" height="61" viewBox="0 0 81 61" fill="none" xmlns="http://www.w3.org/2000/svg">
<path d="M77.8679 32.6383C80.4171 27.5629 76.5427 24.7925 74.9302 24.4522C74.9302 24.4522 80.515 16.0413 73.0926 9.60479C66.8909 4.22763 58.9364 9.36402 58.9364 9.36402C58.9364 9.36402 52.6923 -2.43363 35.9641 0.45559C20.2902 3.16504 18.9519 18.3527 18.9519 18.3527C18.9519 18.3527 8.21975 15.1425 2.40649 23.3896C-3.86374 32.282 4.10053 41.627 4.10053 41.627C3.77412 57.8387 22.0528 55.11 22.0528 55.11C30.7025 64.4197 43.1058 57.5177 43.1058 57.5177C64.8117 67.7905 71.9926 50.2946 71.9926 50.2946C84.1185 45.9127 81.7325 36.5227 77.8679 32.6383ZM30.5621 45.1775C29.3936 45.566 28.3067 45.7618 27.3079 45.7618C26.1132 45.7618 25.0557 45.4825 24.1385 44.9207C23.0385 44.2498 21.6676 42.8501 21.0376 39.9416C18.4395 40.3333 15.2799 39.5756 15.1265 39.5371C14.614 39.4087 14.2974 38.8919 14.4247 38.3846C14.5553 37.8806 15.0808 37.5692 15.5965 37.6944C16.6312 37.948 19.7059 38.4745 21.5142 37.8903L22.6142 37.5371L22.7741 38.6703C23.0842 40.94 23.9133 42.5483 25.1601 43.3124C26.3254 44.0218 27.9378 44.0475 29.9517 43.383C30.4544 43.2128 30.9995 43.4825 31.1725 43.9769C31.3422 44.4713 31.0713 45.0138 30.5621 45.1775ZM37.9943 13.3415C33.1244 13.6529 31.92 18.2949 31.871 18.4907C31.7665 18.9273 31.3683 19.2195 30.9375 19.2195C30.8591 19.2195 30.7841 19.2066 30.7123 19.1938C30.19 19.0686 29.8767 18.5614 29.9974 18.0477C30.5132 15.9033 32.8208 11.7685 37.8703 11.4507C38.4056 11.425 38.8626 11.8166 38.892 12.3367C38.9246 12.8632 38.5198 13.3094 37.9943 13.3415ZM56.5145 22.5421C55.5516 23.9514 54.0763 24.571 53.0807 24.8438C53.9424 29.0621 53.3843 32.4714 51.4096 34.9786C48.2565 38.9817 42.7076 39.1005 42.4693 39.1069H42.4563C41.9275 39.1069 41.4967 38.6896 41.4901 38.1728C41.4836 37.6463 41.9079 37.2161 42.4432 37.2097C42.4693 37.2097 43.6836 37.1712 45.2209 36.7346C46.7518 36.2948 48.6057 35.4408 49.8918 33.8004C51.6282 31.5885 51.9938 28.3976 50.9852 24.3238L50.7143 23.2387L51.8535 23.1552C51.8535 23.1552 53.9033 22.9723 54.9282 21.4666C55.705 20.3206 55.7442 18.6513 55.0424 16.5004C54.8825 16.006 55.1632 15.4699 55.6659 15.3126C56.1751 15.1521 56.7202 15.425 56.8834 15.9258C57.7712 18.6641 57.6471 20.8856 56.5145 22.5421ZM66.9692 43.1165C65.2001 45.9191 62.1352 47.5595 60.6109 47.6655H60.5391C60.0364 47.6655 59.6121 47.2867 59.5795 46.7859C59.5403 46.2626 59.9418 45.8067 60.4738 45.7682C61.2343 45.7168 63.7933 44.5547 65.3372 42.1117C66.8811 39.6752 66.9758 36.7795 65.6212 33.4954C65.4123 33.0107 65.6506 32.4521 66.1467 32.2563C66.6428 32.0605 67.201 32.2948 67.4001 32.7828C69.401 37.6078 68.2683 41.0684 66.9692 43.1165Z" fill="currentColor"/>
</svg>
