<svg width="73" height="74" viewBox="0 0 73 74" fill="none" xmlns="http://www.w3.org/2000/svg">
<path d="M69.9583 15.4161H61.5938H60.2159L41.8929 1.79683C38.6657 -0.598944 34.3313 -0.598944 31.1041 1.79683L12.7841 15.4161H11.4062H3.04167C1.36267 15.4161 0 16.7943 0 18.4994C0 20.2045 1.36267 21.5828 3.04167 21.5828H9.125V53.1749C9.125 56.1658 10.7036 58.9624 13.2434 60.4794L35.3411 73.6793C35.7 73.8952 36.0985 74 36.5 74C36.9015 74 37.3 73.8952 37.6589 73.6793L59.7566 60.4794C62.2964 58.9624 63.875 56.1658 63.875 53.1749V21.5828H69.9583C71.6373 21.5828 73 20.2045 73 18.4994C73 16.7943 71.6373 15.4161 69.9583 15.4161ZM34.6993 6.7703C35.7761 5.96554 37.2239 5.96554 38.2976 6.7703L49.9259 15.4161H23.071L34.6993 6.7703ZM51.1943 53.4309C51.0757 54.177 50.44 54.729 49.6917 54.729H23.3083C22.56 54.729 21.9243 54.177 21.8057 53.4309L19.0287 35.8619C18.9405 35.2853 19.1747 34.7118 19.637 34.3726C20.1024 34.0303 20.7138 33.9841 21.2248 34.2493L28.911 38.2484L35.1525 26.2603C35.6818 25.2489 37.3152 25.2489 37.8444 26.2603L44.0859 38.2484L51.7722 34.2493C52.2832 33.9841 52.8976 34.0334 53.36 34.3726C53.8223 34.7118 54.0565 35.2883 53.9683 35.8619L51.1943 53.4309Z" fill="currentColor"/>
</svg>
