<svg width="65" height="67" viewBox="0 0 65 67" fill="none" xmlns="http://www.w3.org/2000/svg">
<path d="M64.9638 20.7387C64.9981 20.4129 64.8952 20.0872 64.7067 19.8129L53.4777 5.77246C51.4034 3.09809 48.489 1.19517 45.2146 0.372281C40.6544 -0.707754 35.8543 0.612289 32.477 3.8524C29.0998 0.595146 24.3168 -0.707754 19.7566 0.372281C16.4822 1.21231 13.5678 3.11523 11.4935 5.77246L0.247406 19.8301C0.0588282 20.0872 -0.0268889 20.4129 0.00739794 20.7387C-0.0268889 22.5902 0.36741 34.6763 13.8764 43.7623C13.8764 43.7623 13.8079 31.1104 13.9279 30.6818C14.0136 29.8932 14.1679 29.1047 14.4422 28.3503C8.11624 25.7103 4.73898 22.813 3.23036 21.2015L22.4653 15.6814C23.7167 15.3213 25.0539 15.3899 26.2711 15.8871C30.7284 17.7729 32.0313 17.7729 32.477 17.7729C33.0256 17.7729 34.1742 17.79 38.7344 15.8871C39.9344 15.3899 41.2716 15.3042 42.5231 15.6814L61.7751 21.2015C60.2837 22.813 56.975 25.676 50.6662 28.3161C51.6948 30.699 51.2491 43.6766 51.2491 43.6766C64.6724 34.5905 65.0324 22.5902 64.9981 20.7387H64.9638Z" fill="currentColor"/>
<path d="M48.9865 28.9676C47.135 22.7617 37.0718 21.2702 33.6431 26.0704C33.6431 27.9904 33.6431 42.9909 33.6431 42.9909C33.6431 43.6424 33.0945 44.1567 32.4431 44.1567C31.8088 44.1567 31.2945 43.6252 31.2773 42.9909C31.2773 38.2422 31.5002 25.9161 31.2773 25.7789C28.2601 22.4188 22.4656 22.5217 18.5912 25.3332C16.6711 26.9447 15.574 29.3448 15.6254 31.8477C15.6254 31.8477 15.6425 47.5854 15.6254 49.2825C15.6768 58.6257 23.2885 66.1517 32.6317 66.1002C41.9063 66.0488 49.3979 58.5571 49.4494 49.2825C49.4494 49.2825 49.8437 30.9048 48.9865 28.9676Z" fill="currentColor"/>
</svg>
