<svg width="64" height="66" viewBox="0 0 64 66" fill="none" xmlns="http://www.w3.org/2000/svg">
<path d="M31.734 9.56819e-08C32.836 0.000246487 33.9235 0.257401 34.9088 0.750977C35.8939 1.24451 36.7508 1.9605 37.4108 2.84277L39.4332 5.54297C39.6829 5.8745 40.0288 6.12141 40.4235 6.25C40.8181 6.37855 41.2432 6.38247 41.6403 6.26172L44.8678 5.2627C45.92 4.93779 47.0334 4.86199 48.1198 5.04199C49.2063 5.22205 50.2363 5.65271 51.1276 6.2998C52.0188 6.9469 52.7469 7.79309 53.2545 8.77051C53.7621 9.7479 54.0356 10.8304 54.0524 11.9316L54.1041 15.3125C54.1111 15.7275 54.2459 16.1301 54.4899 16.4658C54.7338 16.8016 55.0749 17.0546 55.4674 17.1895L58.6705 18.2822C59.7119 18.6386 60.6561 19.2324 61.4283 20.0166C62.2007 20.801 62.7795 21.7549 63.1198 22.8018C63.46 23.8486 63.5528 24.9603 63.3893 26.0488C63.2258 27.1373 62.8082 28.1726 62.1754 29.0732L60.2272 31.8428C59.9901 32.1822 59.8629 32.586 59.8629 33C59.8629 33.414 59.9901 33.8178 60.2272 34.1572L62.1754 36.9287C62.8088 37.8293 63.2246 38.8653 63.3883 39.9541C63.552 41.0429 63.4593 42.1551 63.1188 43.2021C62.7782 44.2492 62.1984 45.2031 61.4254 45.9873C60.6525 46.7713 59.7075 47.3642 58.6657 47.7197L55.4625 48.8105C55.0698 48.9454 54.7286 49.1989 54.485 49.5352C54.2414 49.8715 54.1069 50.2752 54.1012 50.6904L54.0524 54.0635C54.0365 55.1651 53.7638 56.2486 53.2565 57.2266C52.7492 58.2045 52.0209 59.0508 51.1295 59.6982C50.2381 60.3457 49.2077 60.7761 48.1207 60.9561C47.0339 61.136 45.9202 61.0608 44.8678 60.7354L41.6422 59.7383C41.2448 59.6173 40.8195 59.6214 40.4244 59.75C40.0295 59.8786 39.6833 60.1254 39.4332 60.457L37.4108 63.1592C36.7503 64.0413 35.8933 64.7578 34.9078 65.251C33.9223 65.7441 32.8351 66.0003 31.733 66C30.631 65.9997 29.5445 65.7426 28.5592 65.249C27.574 64.7555 26.7173 64.0395 26.0573 63.1572L24.0338 60.457C23.7843 60.1256 23.439 59.8786 23.0446 59.75C22.6499 59.6214 22.2248 59.6173 21.8278 59.7383L18.6002 60.7373C17.5479 61.0623 16.4339 61.1381 15.3473 60.958C14.2609 60.7779 13.2316 60.3471 12.3405 59.7002C11.4492 59.0531 10.7202 58.2069 10.2125 57.2295C9.70509 56.2523 9.4325 55.1703 9.41565 54.0693L9.36292 50.6875C9.35594 50.2726 9.22201 49.8699 8.97815 49.5342C8.7342 49.1984 8.39216 48.9464 7.99964 48.8115L4.79749 47.7178C3.75603 47.3613 2.81101 46.7678 2.0387 45.9834C1.26642 45.1991 0.68757 44.2451 0.347294 43.1982C0.00710472 42.1515 -0.0847492 41.0396 0.078739 39.9512C0.242293 38.8628 0.656945 37.8273 1.28968 36.9268L3.23987 34.1582C3.47708 33.8188 3.60511 33.4141 3.60511 33C3.60509 32.5859 3.47705 32.1822 3.23987 31.8428L1.29163 29.0713C0.658213 28.1707 0.243469 27.1347 0.0797156 26.0459C-0.0839896 24.9571 0.00774041 23.8449 0.34827 22.7979C0.688879 21.7508 1.26865 20.7968 2.04163 20.0127C2.81463 19.2285 3.76026 18.6359 4.80237 18.2803L8.00452 17.1895C8.39729 17.0546 8.73943 16.8012 8.98304 16.4648C9.22655 16.1285 9.36016 15.7247 9.36585 15.3096L9.41565 11.9365C9.43157 10.8349 9.70421 9.75144 10.2116 8.77344C10.7189 7.79559 11.4472 6.94915 12.3385 6.30176C13.2298 5.65447 14.2596 5.22394 15.3463 5.04395C16.4333 4.86397 17.5477 4.93907 18.6002 5.26465L21.8248 6.26172C22.2222 6.38425 22.6482 6.38065 23.0436 6.25195C23.4389 6.12329 23.7847 5.87576 24.0338 5.54297L26.0573 2.84082C26.7177 1.95867 27.5747 1.24215 28.5602 0.749024C29.5455 0.256038 30.6322 -0.000180764 31.734 9.56819e-08ZM39.0192 15.4111C35.5403 13.9702 31.7123 13.5925 28.0192 14.3271C24.3262 15.0618 20.9336 16.8756 18.2711 19.5381C15.6087 22.2006 13.7957 25.5932 13.0612 29.2861C12.3266 32.9792 12.7032 36.8074 14.1442 40.2861C15.5852 43.7649 18.0261 46.7381 21.1569 48.8301C24.2877 50.9219 27.9687 52.0391 31.734 52.0391C36.7816 52.0335 41.6209 50.0252 45.1901 46.4561C48.7592 42.8868 50.7666 38.0476 50.7721 33C50.7721 29.2346 49.656 25.5537 47.5641 22.4229C45.4721 19.292 42.498 16.8521 39.0192 15.4111ZM31.734 19.0381C35.4353 19.0427 38.9839 20.5147 41.6012 23.1318C44.2185 25.7491 45.6903 29.2986 45.695 33C45.6949 35.7611 44.8764 38.4601 43.3424 40.7559C41.8083 43.0518 39.6279 44.8417 37.0768 45.8984C34.5258 46.9551 31.7185 47.232 29.0104 46.6934C26.3022 46.1547 23.8145 44.8245 21.8619 42.8721C19.9095 40.9196 18.5794 38.4318 18.0407 35.7236C17.5019 33.0153 17.7779 30.2074 18.8346 27.6562C19.8913 25.1052 21.6813 22.9247 23.9772 21.3906C26.2731 19.8566 28.9727 19.0381 31.734 19.0381ZM40.316 25.4004C39.647 25.3974 39.0034 25.6591 38.526 26.1279L30.1676 34.4873L26.8854 31.2051C26.6502 30.9669 26.3697 30.777 26.0612 30.6475C25.7527 30.518 25.4211 30.4513 25.0866 30.4502C24.752 30.4492 24.4202 30.5141 24.111 30.6416C23.8017 30.7692 23.5204 30.9568 23.2838 31.1934C23.0472 31.43 22.8596 31.7112 22.7321 32.0205C22.6045 32.3298 22.5396 32.6615 22.5407 32.9961C22.5417 33.3308 22.6094 33.6621 22.7389 33.9707C22.8684 34.2792 23.0575 34.5589 23.2955 34.7939L28.3727 39.8711C28.6083 40.1068 28.888 40.2943 29.1959 40.4219C29.5037 40.5493 29.8335 40.6152 30.1666 40.6152C30.4999 40.6152 30.8304 40.5494 31.1383 40.4219C31.4462 40.2943 31.7259 40.1068 31.9616 39.8711L42.1158 29.7178C42.5846 29.2404 42.8463 28.5968 42.8434 27.9277C42.8404 27.2586 42.5724 26.6177 42.0992 26.1445C41.6261 25.6713 40.9852 25.4034 40.316 25.4004Z" fill="currentColor"/>
</svg>
