<svg xmlns="http://www.w3.org/2000/svg" id="Layer_2" viewBox="0 0 150.51 113.97"><defs><style>.cls-1{fill:#151515}</style></defs><g id="Layer_1-2"><path d="M103.6 97.77c.31-.42.64-.83.97-1.24h-.54c.54-1.16 1.14-2.79 1.89-5.05h4.36c.03.09.05.17.09.26l.24.6.64.11c.08.01 8.25 1.42 19.41 2.47 1.25.12 2.48.17 3.67.17 7.89 0 14.29-2.39 15.8-5.08.55-.99.5-2.06-.16-2.93l-.24-.32-.39-.1c-1.38-.37-2.67-1.53-4.17-2.87-2.69-2.42-6.15-5.51-12.28-5.83-.63-.26-1.25-.5-1.83-.76l-.29-.13-.35.09c-1.53.38-3.03.87-4.51 1.41-.43.15-.84.33-1.26.49-2.5.82-5.25 2.12-7.67 3.64h-16.06c-.49 0-.88.39-.88.88 0 .19.07.35.17.5.16.23.41.38.71.38h40.11c.16.16.33.32.48.49.93 1.06 1.65 2.32 2.09 3.73a9.34 9.34 0 0 0-1.47-4.19s-.01-.02-.02-.02h.29c.42.36.82.72 1.22 1.08 1.48 1.33 2.89 2.6 4.55 3.21-.01.04-.03.09-.07.15-.96 1.72-7.91 4.59-17.22 3.72-8.99-.84-16.02-1.92-18.38-2.31.05-.24.15-.48.25-.68.31-.6.84-1.26 1.52-1.93l.34.06c.89.15 1.79.29 2.67.46.89.15 1.78.31 2.66.5.89.17 1.76.38 2.63.61.43.12.87.25 1.28.41.21.08.42.17.61.27.19.11.4.22.5.43 0-.03-.02-.06-.03-.08-.07-.19-.23-.34-.37-.48-.17-.16-.36-.3-.56-.43-.39-.26-.8-.48-1.22-.69-.83-.41-1.69-.76-2.56-1.08-.87-.31-1.75-.6-2.63-.86-.51-.15-1.03-.29-1.54-.43.19-.22.41-.44.66-.65.27-.23.55-.45.85-.67l-4.09.18c-1.26 1.1-2.26 2.22-2.81 3.31-.2.4-.35.79-.43 1.17h-3.76c.03-.1.06-.19.09-.28l.48-1.52h-1.59c-.76 0-1.52-.07-2.25-.2-3.39-.59-6.01-2.44-8.32-4.07-2.36-1.66-4.39-3.1-6.73-2.91l-.95.08-.11.95s-.59 4.3-5.01 7.88l-1.4 1.13 2.35 1.2c3.86 1.98 6.93 3.45 9.38 4.55h-.68c.52.22 1.05.45 1.57.68 1.49.67 2.97 1.38 4.43 2.11l3.49 1.78c.76-1.13 1.54-2.24 2.36-3.33Zm34.64-15.46c.21.12.41.26.61.39h-17.21c.27-.14.53-.28.8-.41 1.37-.64 2.76-1.24 4.18-1.78 1.33-.51 2.68-.95 4.03-1.39l3.75 1.36c1.33.51 2.61 1.11 3.83 1.82Zm-36.78 7.42h-7.22c-.49 0-.88.39-.88.88s.39.88.88.88h6.51c-.66.98-1.4 1.86-2.39 2.2-.55.22-1.16.32-1.8.39-.43.07-.99-.16-1.55-.42-1.12-.52-2.22-1.25-3.31-1.96a207 207 0 0 1-3.06-2.09c0-.23.03-.46.08-.69.08-.33.21-.65.35-.98.3-.65.69-1.28 1.13-1.89-.63.42-1.19.95-1.66 1.57-.46.62-.85 1.37-.92 2.25l-.02.21.2.19c.99.93 2.02 1.78 3.12 2.57.85.62 1.74 1.19 2.71 1.68-2.21-.98-5.07-2.33-8.75-4.2 2.82-2.76 3.92-5.64 4.32-7.16 1.29.27 2.73 1.29 4.35 2.43 2.1 1.49 4.66 3.29 7.91 4.16Zm-.04 6.8h-2.63c-.9-.28-2.13-.73-3.81-1.44l.54.15c.2.03.38.08.6.08.21 0 .5 0 .65-.05.67-.16 1.36-.36 2.01-.73.64-.38 1.18-.93 1.51-1.54.28-.48.47-.99.62-1.51h2.56c-.88 2.62-1.57 4.3-2.04 5.05ZM79.3 107.64c0 3.49 2.84 6.32 6.32 6.32 3.49 0 6.32-2.84 6.32-6.32s-2.84-6.32-6.32-6.32c-3.49 0-6.32 2.84-6.32 6.32m2.81 0c0-1.94 1.58-3.51 3.51-3.51s3.51 1.58 3.51 3.51-1.58 3.51-3.51 3.51-3.51-1.58-3.51-3.51m16.51-77.67h.03l1.58-.05c-.47.86-.85 1.61-1.15 2.23-.27 0-.53-.02-.8-.02-.58-.02-1.16-.03-1.74-.04.28-.64.7-1.55 1.27-2.64.14.31.44.53.8.53Zm30.92 2.14c-1.1-1.07-2.15-2.14-3.32-3.09l1.11-.04c.82.98 1.55 2.04 2.2 3.13Zm-25.36-2.33.88-.03c-.8.82-1.6 1.65-2.35 2.5h-.01c.43-.85.95-1.67 1.49-2.47Zm-17.09-1.13c1.29-2.26 2.97-5.22 5.1-7.97-.35-.07-.73-.2-1.12-.45-4.38-2.82-6.87-7.51-8.87-11.27-1.45-2.72-2.73-5.13-4.26-6.09-1.14 2.12-4.23 7.02-10.07 10.46 9.85 13.21 14.11 17.29 15.93 18.44l-2.84-.06c-.29-.94-.63-1.87-1.12-2.74-.56-1-1.32-1.93-2.26-2.63s-2.03-1.14-3.12-1.42c-.22-.06-.44-.11-.67-.15-1.43-1.74-3.01-3.74-4.75-6.01-1.12.41-2.23.59-3.35.7-1.2.13-2.4-.1-3.6-.18-1.2-.07-2.4-.16-3.6-.26-1.2-.12-2.4-.21-3.6-.35-.04 0-.07-.04-.08-.08 0-.05.03-.09.08-.1 1.2-.14 2.4-.23 3.6-.35 1.2-.1 2.4-.19 3.6-.26 1.2-.08 2.4-.3 3.6-.18.99.1 1.99.25 2.98.58-.88-1.15-1.8-2.37-2.76-3.67l-1.54-2.05 1.22-.64C73.18 7.96 76.27.97 76.3.9l.39-.91.96.24c2.93.73 4.63 3.93 6.6 7.62 1.98 3.71 4.21 7.92 8.08 10.41.21.14.41.15.85.17s.99.04 1.63.28l1.6.59-1.12 1.28c-2.62 2.99-4.68 6.59-6.17 9.22-.45.79-.84 1.47-1.19 2.06l-2.75-.06c.5-.68 1.24-1.97 1.91-3.16Z" class="cls-1"/><path d="M79.87 26.48c-.32-.14-.58-.31-.81-.48-.46-.36-.83-.74-1.18-1.12-1.35-1.57-2.33-3.27-3.25-5.01-.9-1.74-1.7-3.51-2.36-5.36l-.12-.34.1-.23c.26-.61.57-1.19.97-1.7.39-.5.81-.97 1.28-1.38.93-.81 1.96-1.49 3.08-1.94-.88.82-1.68 1.68-2.35 2.6-.61.82-1.07 1.7-1.36 2.59.86 1.59 1.71 3.19 2.6 4.76.93 1.64 1.88 3.29 2.97 4.7.27.34.56.67.84.92.14.13.28.24.39.3.06.04.11.06.14.07 0 .02.16.04.26.06.9.16 1.75.24 2.55.06.81-.16 1.59-.6 2.33-1.16.74-.57 1.44-1.23 2.15-1.9-.43.87-.93 1.72-1.57 2.5-.63.78-1.46 1.49-2.49 1.9-1.04.42-2.17.42-3.17.38-.17 0-.7-.07-.99-.22Zm-43.6 23.99c2.17-.14 4.33-.23 6.5-.35l6.5-.26c2.17-.08 4.33-.3 6.5-.18s4.33.31 6.5.79c.03 0 .06.03.07.07.01.05-.02.1-.07.11-2.17.48-4.33.67-6.5.79-2.17.13-4.33-.1-6.5-.18l-6.5-.26c-2.17-.12-4.33-.21-6.5-.35-.04 0-.08-.04-.08-.08 0-.05.03-.09.08-.09Z" class="cls-1"/><path d="M38.64 60.75s.04.09.09.09l17.39.35 12.08.18 5.31.08c5.8.08 11.59.3 17.39.18 5.14-.1 10.28-.28 15.41-.65.17-.01.34-.02.52-.04-1.49 1.51-2.98 3.02-4.49 4.53-1.24-1.2-2.48-2.39-3.71-3.57l-2.44.1c.08.08.17.16.25.24 1.54 1.47 3.1 2.96 4.66 4.47-1.7 1.7-3.41 3.38-5.14 5.05l-5.03-5.03c1.48-1.58 2.98-3.15 4.5-4.7l-2.55.1c-1.07 1.11-2.14 2.23-3.19 3.36l-3.11-3.11-4.82.19 1.63 6.39c-1.21-.15-2.43-.25-3.64-.32-2.14-.13-4.27.1-6.41.18l-6.41.26c-2.14.12-4.27.21-6.41.35-.05 0-.09.05-.08.09 0 .04.04.08.08.08 2.14.14 4.27.23 6.41.35l6.41.26c2.14.08 4.27.3 6.41.18 1.31-.07 2.61-.18 3.92-.36l1.54 6.03c-.53.4-1.04.79-1.54 1.16-8.45 6.35-13.61 10.24-7.52 21.97l-4.04.1-10.89.35s-.09.04-.08.09c0 .05.04.08.08.09l10.89.35 4.62.11.49.9h18.81q-1.875-.975-3.72-2.01c-1.42-.81-2.83-1.65-4.21-2.56-.05-.03-.09-.06-.14-.1h-7.95c-3.94-7.74-1.71-9.42 6.46-15.56.59-.45 1.22-.92 1.86-1.4l58.65-5.43 1.27-14.67.37-.37-.03-.41c-.04-.52-.09-1.06-.13-1.6l1.9-21.96-51.89-1.55.03-.06h-.23c-.39-.01-.78-.03-1.17-.04l.2.07-10.26-.31s.06-.08.08-.12c-1.87-.07-3.75-.14-5.62-.22.08.06.15.12.23.18l-2.93-.09c-2.95-7.16-7.89-7.47-12.68-7.77-5.63-.35-7.79-.36-7.87-.36-1.29 0-2.33 1.04-2.33 2.33s1.04 2.33 2.33 2.33c.02 0 2.14 0 7.58.35 5.32.33 7.75.49 9.59 7.8l1.15 4.49c-1.77-.31-3.55-.47-5.32-.57-2.17-.13-4.33.1-6.5.18l-6.5.26c-2.17.12-4.33.21-6.5.35-.05 0-.09.05-.08.09 0 .04.04.08.08.08 2.17.14 4.33.23 6.5.35l6.5.26c2.17.08 4.33.3 6.5.18 1.83-.1 3.65-.26 5.48-.59l2.04 7.99c-.46.05-.91.12-1.37.16-.94.07-1.87.16-2.81.26-.94.12-1.87.21-2.81.35-.05 0-.08.05-.07.1 0 .04.04.07.07.07.94.14 1.87.23 2.81.35.94.1 1.87.19 2.81.26.6.05 1.21.15 1.81.19l1.89 7.39c-2.52.05-5.04.11-7.57.14l-17.39.26-17.39.35s-.09.04-.09.09Zm68.99-2.28-4.35-4.29c1.43-1.4 2.86-2.79 4.27-4.16.24-.23.48-.47.72-.7 1.68 1.68 3.36 3.34 5.04 5-.42.43-.85.87-1.28 1.3-1.18 1.21-2.38 2.43-3.58 3.66-.27-.27-.55-.54-.82-.81m-24.2-9.21c1.64 1.79 3.33 3.54 5.05 5.26-1.05 1.03-2.11 2.04-3.19 3.03l-2.06-8.09zm1.23-1.24 5.03-5.03c1.66 1.72 3.35 3.43 5.04 5.14-1.64 1.72-3.31 3.44-5.01 5.15-1.72-1.72-3.42-3.48-5.05-5.27Zm6.27-6.27 3.62-3.62 2.83.08c1.13 1.19 2.28 2.38 3.43 3.56-1.56 1.6-3.1 3.21-4.61 4.8-.09.1-.18.19-.27.29-1.68-1.7-3.36-3.4-5.01-5.11Zm29.63 17.24c-1.58-1.55-3.17-3.12-4.77-4.69 1.67-1.7 3.35-3.41 5.05-5.13.91.88 1.81 1.77 2.71 2.64.81.79 1.62 1.58 2.43 2.38-.49.48-.98.97-1.47 1.45l-3.68 3.62c-.09-.09-.18-.18-.28-.27Zm.41 12.75c-1.68-1.71-3.38-3.41-5.07-5.1 1.65-1.65 3.3-3.29 4.94-4.91 1.69 1.66 3.39 3.33 5.09 5.01-1.65 1.67-3.31 3.34-4.96 5m6.21-3.77c1.02 1.01 2.03 2.01 3.04 3.02l-6.64.62c1.2-1.21 2.4-2.42 3.6-3.64m-5.09-7.48c1.22-1.21 2.45-2.41 3.66-3.6l1.5-1.47c1.66 1.63 3.33 3.28 4.99 4.94-1.48 1.49-2.94 2.98-4.4 4.45-.23.23-.45.46-.68.69-1.7-1.68-3.39-3.34-5.07-5Zm21.94-11.84c-1.49 1.44-2.97 2.89-4.45 4.36-1.34-1.33-2.68-2.68-4.02-4.04l-4.46.17c-1.29 1.28-2.57 2.55-3.86 3.81l-2.46-2.4c-.89-.87-1.8-1.75-2.7-2.63 1.66-1.67 3.34-3.34 5.03-5 .93.94 1.86 1.88 2.77 2.81.53.53 1.04 1.05 1.56 1.58h-.05c-.71.06-1.42.1-2.13.15-.9.06-1.8.13-2.7.2-.05 0-.08.05-.08.1 0 .04.04.08.08.08 1.61.14 3.22.23 4.83.35l4.83.26c1.61.08 3.22.3 4.83.18 1.54-.11 3.08-.3 4.63-.74-.07.4-.39.72-.82.74l-.83.03Zm.28 2.19-.54 6.3c-.98-.96-1.96-1.92-2.93-2.89 1.16-1.14 2.32-2.28 3.48-3.41Zm-18.44-9.17c-1.7 1.67-3.38 3.34-5.05 5.02-1.64-1.61-3.28-3.23-4.92-4.87.99-.98 1.97-1.97 2.95-2.97l4.34.13c.89.9 1.79 1.79 2.67 2.69Zm-.12-2.61 2.73.08c-.45.44-.9.87-1.35 1.31-.46-.46-.92-.92-1.38-1.39m-11.08 1.52c-.63-.63-1.25-1.27-1.87-1.91l3.67.11zm23.66 13.67c-1.63 1.62-3.25 3.24-4.85 4.86-1.66-1.66-3.32-3.3-4.98-4.93 1.64-1.61 3.28-3.23 4.92-4.87 1.65 1.67 3.28 3.31 4.91 4.94m-23.78-1.19c-1.67-1.65-3.34-3.31-5.01-4.97 1.7-1.66 3.42-3.33 5.13-5.03 1.64 1.64 3.28 3.27 4.93 4.88-1.7 1.71-3.38 3.42-5.05 5.12m-6.26-6.21c-1.68-1.68-3.35-3.37-5.01-5.06 1.11-1.12 2.23-2.22 3.36-3.29l3.64.11a318 318 0 0 0 3.15 3.22c-1.71 1.7-3.43 3.37-5.13 5.03Zm-6.23-6.33c-.73-.75-1.45-1.49-2.16-2.24l4.28.13c-.71.7-1.42 1.4-2.12 2.11m34.04-1.15 2.38 2.38c-1.66 1.69-3.35 3.38-5.05 5.08-.77-.78-1.53-1.54-2.3-2.33-.91-.92-1.84-1.86-2.76-2.8.85-.83 1.71-1.66 2.57-2.48zm7.54 7.54 1.15-.04c.45-.02.81.31.88.74-1.16-.33-2.33-.52-3.49-.64-.38-.04-.76-.07-1.14-.1-1.61-.13-3.22.1-4.83.18l-.55.03c1.36-1.36 2.72-2.73 4.05-4.09l3.92 3.92Zm-.29 14.96-3.63 3.63c-1.65-1.73-3.32-3.45-5.01-5.14 1.61-1.62 3.23-3.25 4.86-4.87 1.32 1.31 2.65 2.61 3.99 3.91zm-4.87 4.87-3.85 3.85-2.14.2c-1.35-1.35-2.71-2.71-4.08-4.06.23-.23.45-.46.68-.69 1.45-1.47 2.91-2.95 4.39-4.44 1.68 1.7 3.36 3.41 5 5.14m-28.76 6.15c1.64-1.68 3.28-3.35 4.94-5.02 1.39 1.38 2.78 2.78 4.16 4.17l-9.1.84Zm4.93-7.5c-1.65-1.64-3.3-3.27-4.94-4.88 1.2-1.23 2.4-2.45 3.59-3.66l1.27-1.3c1.59 1.57 3.19 3.14 4.76 4.69.08.08.17.17.26.25-1.64 1.62-3.29 3.26-4.94 4.9m-12.61-12.45c-1.62-1.6-3.24-3.21-4.85-4.84.1-.11.21-.22.31-.32 1.5-1.57 3.02-3.17 4.56-4.75q2.475 2.52 4.98 5.04c-.23.23-.47.46-.7.69-1.42 1.38-2.86 2.78-4.3 4.19Zm-1.26 1.24c-1.68 1.65-3.35 3.32-5.02 5-1.6-1.53-3.21-3.08-4.81-4.65 1.71-1.71 3.37-3.43 5.01-5.15 1.6 1.61 3.21 3.21 4.81 4.8Zm-14.91 5.66-.09-.35c1.34-1.21 2.65-2.47 3.93-3.73 1.43 1.41 2.87 2.8 4.31 4.18-1.04-.03-2.09-.05-3.13-.08-1.67-.04-3.35-.04-5.02-.03ZM80.22 37.7l11.92.36-9.43 9.43-2.5-9.78Zm65.05 1.94-.51 5.91-6.11-6.11 6.61.2Zm-2.6 30.2-5.29.49 5.75-5.75-.45 5.26Zm-55.32-4.19 8.53 8.53-6.21.57zm15 2.29c1.66 1.63 3.3 3.28 4.91 4.96l-.24.24-8.87.82-.96-.96c1.73-1.68 3.45-3.37 5.15-5.07Zm6.13-6.18c1.64 1.61 3.28 3.24 4.93 4.88-1.65 1.66-3.29 3.32-4.92 5a207 207 0 0 0-4.89-4.94c1.64-1.64 3.27-3.29 4.88-4.93Zm-1.3-1.18-.88-.06c-2.33-.17-4.67-.3-7-.4-.64-.03-1.28-.05-1.93-.07 1.55-1.56 3.1-3.1 4.65-4.63 1.46 1.45 2.92 2.88 4.37 4.31.27.27.55.54.82.81l-.05.05Zm21.11-31.89c1.46-.07 2.93-.17 4.39-.34.82 1.25 1.41 2.58 1.69 3.98l2.29-.44c-1.93-9.98-16.85-16.13-21.75-18.15-.55-.23-1.12-.46-1.26-.54l-.63-.42-.61.42c-.95.6-1.86 1.23-2.72 1.89-.97-.3-1.93-.45-2.9-.55-1.2-.13-2.4.1-3.6.18-1.2.07-2.4.16-3.6.26-1.2.12-2.4.21-3.6.35-.05 0-.08.05-.08.1 0 .04.04.07.08.08 1.2.14 2.4.23 3.6.35 1.2.1 2.4.19 3.6.26 1.2.08 2.4.3 3.6.18.56-.05 1.12-.13 1.67-.24-4.38 3.64-7.45 7.88-9.44 11.23h-.57s-.09.05-.09.1.04.08.08.09l.45.03c-.15.25-.29.5-.42.74.04 0 .08-.03.12-.03l2.68-.09c.09-.15.19-.3.28-.46l3.97.24s-.04.05-.06.08l.88-.03 1 .06 8.91.44c2.97.13 5.94.42 8.91.35 1.04-.02 2.08-.06 3.12-.1Zm-10.42-5.14c1.43.72 2.84 1.5 4.18 2.39.52.33 1.03.69 1.54 1.05-2.43-.06-4.86.05-7.29.06l-8.6.08c.18-.17.36-.35.54-.52.96-.9 1.94-1.78 2.93-2.63.89-.74 1.79-1.46 2.72-2.13 1.33.48 2.7 1.06 3.99 1.71Zm14.37 4.16c-2.22-.32-4.45-.51-6.68-.64l-.75-.72c-.64-.54-1.26-1.1-1.94-1.6-1.34-1.01-2.74-1.93-4.23-2.71-1.5-.78-2.99-1.48-4.67-1.99l-.41-.12-.34.25c-1.1.81-2.15 1.68-3.13 2.62-.99.92-1.92 1.91-2.8 2.93-.41.47-.81.95-1.19 1.44l-4.27.08c2.4-3.74 6.09-8.32 11.28-11.71.23.1.52.22.9.38 3.74 1.54 13.7 5.65 18.22 11.81Zm-28.64 73.48h33.8c-3.13.37-5.57 3.04-5.57 6.27 0 3.49 2.84 6.32 6.32 6.32 3.49 0 6.32-2.84 6.32-6.32 0-3.23-2.44-5.9-5.57-6.27h6.1c1.29 0 2.33-1.04 2.33-2.33s-1.04-2.33-2.33-2.33h-1.43c-.53.19-1.06.38-1.6.55-1.49.46-3.01.85-4.56 1.1-1.55.27-3.1.46-4.71.49h-.11l-.15-.03c-1.92-.4-3.85-.79-5.78-1.16-1.64-.31-3.29-.64-4.94-.95H105.8a72 72 0 0 1-2.2 4.67Zm34.55 2.77c1.94 0 3.51 1.58 3.51 3.51s-1.58 3.51-3.51 3.51-3.51-1.58-3.51-3.51 1.58-3.51 3.51-3.51M0 37.21s.04.08.08.08c2.31.14 4.63.23 6.94.35l6.94.26c2.31.08 4.63.3 6.94.18 2.25-.12 4.51-.3 6.76-.76.64.95 1.29 1.98 1.93 3.1l.76 1.32 1.08-1.08c.25-.25 6.11-6.16 13.7-18.82l.33-.55-.29-.57c-1.19-2.38-4.96-4.78-9.28-6.55-.88-.7-1.78-1.36-2.75-1.94-.53-.33-1.08-.63-1.64-.91-.58-.27-1.14-.55-1.87-.71l-.11-.03-.14.02c-3.01.38-6.03.94-8.91 2.1-1.32.53-2.61 1.2-3.8 2.05l-4.37.24c-1.61.12-3.22.21-4.83.35-.05 0-.08.05-.08.1 0 .04.04.08.08.08 1.61.14 3.22.23 4.83.35l2.88.16c-.07.07-.13.14-.2.21-4.2 2.05-7.58 4.85-6.33 8.75l.31.97 1.01-.18c.38-.06 8.9-1.3 17.52 11.28-2.19-.43-4.38-.61-6.57-.72-2.31-.13-4.63.1-6.94.18l-6.94.26c-2.31.12-4.63.21-6.94.35-.05 0-.09.04-.08.09Zm10.73-13.82c.04-1.38 1.21-2.63 2.89-3.74l.09.03c1.44.53 2.84 1.26 4.2 2.06 1.36.81 2.69 1.68 3.99 2.6 1.29.93 2.57 1.89 3.8 2.91.62.51 1.23 1.02 1.82 1.56.58.55 1.19 1.08 1.66 1.73-.38-.71-.91-1.34-1.44-1.95s-1.08-1.2-1.66-1.77a53 53 0 0 0-3.59-3.26 44 44 0 0 0-3.91-2.9c-1.13-.74-2.3-1.44-3.55-2.01.59-.92 1.38-1.73 2.3-2.4.05-.04.1-.07.15-.1 1.49.09 2.98.27 4.47.15 1.61-.12 3.22-.31 4.83-.79.05-.01.08-.07.06-.11 0-.03-.03-.05-.06-.06-1.61-.48-3.22-.67-4.83-.79-.51-.04-1.02-.04-1.53-.02.22-.09.43-.19.65-.27 1.34-.52 2.74-.94 4.16-1.28 1.37-.33 2.78-.55 4.18-.77.93.23 2 .76 2.97 1.3 1.02.58 2.02 1.22 2.97 1.91.96.69 1.86 1.46 2.72 2.26.77.73 1.48 1.53 2.11 2.38-.74.58-1.29 1.24-1.89 1.89-.66.76-1.29 1.54-1.91 2.34-1.23 1.58-2.41 3.21-3.56 4.85 1.27-1.55 2.57-3.08 3.89-4.58.66-.75 1.34-1.49 2.02-2.2.69-.69 1.41-1.45 2.17-1.9l.33-.2-.19-.34c-.1-.17-.2-.34-.31-.5.87.62 1.56 1.25 2 1.84-5.44 8.98-9.99 14.45-11.95 16.65-8.16-13.33-16.93-14.53-20.07-14.51Z" class="cls-1"/><circle cx="115.8" cy="54.3" r="19.67" style="fill:#fff"/></g></svg>