<svg width="37" height="66" viewBox="0 0 37 66" fill="none" xmlns="http://www.w3.org/2000/svg">
<g clip-path="url(#clip0_4879_93014)">
<path d="M18.5016 33.0579C13.6231 33.1242 13.2912 25.7835 18.0369 25.2864C23.3136 24.723 23.8114 33.0082 18.5016 33.0579Z" fill="black"/>
<path d="M33.6015 0H2.9868C1.34406 0 0 1.3422 0 2.98266V42.8343C0 44.4748 1.34406 45.817 2.9868 45.817H14.1043V38.5426C14.1043 38.4266 14.1043 38.3106 14.1375 38.1946C11.2005 38.2278 7.25129 38.8243 6.90283 34.864C7.15173 31.202 6.58756 27.0925 6.90283 23.4636C7.06876 21.6906 8.11414 20.4644 9.88963 20.1495C15.2991 20.4478 21.3224 19.6524 26.6489 20.1164C28.6899 20.2821 29.8348 21.5912 30.0008 23.5962C30.2828 27.2085 29.7685 31.202 30.0008 34.864C29.6523 38.8243 25.7363 38.2444 22.7827 38.1946C22.8158 38.3106 22.8158 38.4266 22.8158 38.5426V45.817H33.6015C35.2443 45.817 36.5883 44.4748 36.5883 42.8343V2.98266C36.5883 1.3422 35.2277 0 33.6015 0ZM25.8192 16.0732H22.0194V12.4609C22.0194 12.2952 21.4884 11.3838 21.339 11.185C19.829 9.14683 16.5436 9.3291 15.3322 11.5661C15.2659 11.6987 14.9174 12.5437 14.9174 12.5935V19.2216H11.1175V12.0798C11.1175 11.649 11.914 9.79307 12.1961 9.34567C15.4816 4.05973 23.5791 5.07053 25.4874 10.9696C25.5371 11.1353 25.8192 12.0135 25.8192 12.0798V16.0732Z" fill="black"/>
<path d="M21.4718 47.6566C23.1975 47.0435 25.1224 47.4081 25.8027 49.2308C27.4123 48.1537 29.6689 48.7337 30.3991 50.5399C32.5562 49.2971 35.0452 50.4404 35.2609 52.9591C35.543 56.1903 35.0452 59.7861 35.2609 63.0505C35.0452 64.6909 33.7841 65.7183 32.1745 65.8674C27.8769 66.2651 23.015 65.5692 18.651 65.8674C16.9584 65.8011 16.0126 64.5252 14.9175 63.4482L5.3763 53.0917C8.01464 48.2697 12.8267 51.7992 15.4485 54.5996V38.5429C15.4485 37.2836 17.0414 36.0408 18.2693 35.9745C19.6632 35.9082 21.4884 37.0682 21.4884 38.5429V47.6566H21.4718Z" fill="black"/>
</g>
<defs>
<clipPath id="clip0_4879_93014">
<rect width="36.4183" height="65.693" fill="white" transform="scale(1.00467)"/>
</clipPath>
</defs>
</svg>
