<svg width="75" height="75" viewBox="0 0 75 75" fill="none" xmlns="http://www.w3.org/2000/svg">
<g clip-path="url(#clip0_4879_90375)">
<path d="M37.5 75C58.2107 75 75 58.2107 75 37.5C75 16.7893 58.2107 0 37.5 0C16.7893 0 0 16.7893 0 37.5C0 58.2107 16.7893 75 37.5 75Z" fill="#FFFFFE"/>
<path fill-rule="evenodd" clip-rule="evenodd" d="M27.6379 51.4998C29.7413 52.1722 31.5861 52.3274 31.5861 55.0688C31.5861 55.655 13.8965 55.655 13.8965 55.0688C13.8965 52.3274 15.7586 52.1722 17.8448 51.4998C22.3275 50.1032 19.7068 49.0515 19.2413 46.2757C19.2413 46.2757 18.1206 45.7412 17.9827 44.6895C17.9137 43.8274 18.3103 43.4653 18.3103 43.4653V42.3963C18.3103 40.0688 20.3103 38.1722 22.7241 38.1722C25.1379 38.1722 27.1551 40.0688 27.1551 42.3963V43.4653C27.1551 43.4653 27.5517 43.8274 27.4827 44.6895C27.3448 45.7412 26.2068 46.2757 26.2068 46.2757C25.7413 49.0343 23.1206 50.1032 27.6034 51.4998H27.6379ZM57.1206 51.4998C59.1896 52.1722 61.0689 52.3274 61.0689 55.0688C61.0689 55.655 43.3965 55.655 43.3965 55.0688C43.3965 52.3274 45.2585 52.1722 47.3448 51.4998C51.8448 50.1032 49.2758 49.0515 48.7413 46.2757C48.7413 46.2757 47.6206 45.7412 47.4827 44.6895C47.4137 43.8274 47.8103 43.4653 47.8103 43.4653V42.3963C47.8103 40.0688 49.8103 38.1722 52.2413 38.1722C54.6723 38.1722 56.6551 40.0688 56.6551 42.3963V43.4653C56.6551 43.4653 57.1206 43.8274 56.9827 44.6895C56.8448 45.7412 55.7585 46.2757 55.7585 46.2757C55.2241 49.0343 52.6379 50.1032 57.1206 51.4998ZM44.5172 47.3446C44.8448 47.3446 45.1723 47.155 45.4482 46.8964C45.8448 46.4308 45.793 45.6894 45.2413 45.2239L38.6896 39.7412V33.2929C38.6896 32.6377 38.1206 32.1032 37.4654 32.1032C36.8103 32.1032 36.3275 32.6377 36.3275 33.2929V39.7412L29.7241 45.2239C29.1551 45.6894 29.0861 46.4308 29.5861 46.8964C29.9827 47.4653 30.7241 47.4998 31.1723 47.086L37.4654 41.8619L43.7758 47.086C43.9827 47.2239 44.2413 47.3446 44.5172 47.3446ZM46.3103 29.5343C46.3103 26.8101 44.4482 26.6722 42.362 26.017C37.8792 24.517 40.4999 23.517 40.9654 20.7584C40.9654 20.7584 42.0861 20.155 42.2241 19.1032C42.362 18.3101 41.8965 17.9136 41.8965 17.9136V16.8101C41.8965 14.4826 39.8965 12.6895 37.4827 12.6895C35.0689 12.6895 33.0517 14.4826 33.0517 16.8101V17.9136C33.0517 17.9136 32.6551 18.3101 32.7068 19.1032C32.8448 20.1722 33.9999 20.7584 33.9999 20.7584C34.5172 23.517 37.0517 24.4998 32.5689 26.017C30.5172 26.6722 28.6206 26.8101 28.6206 29.5343C28.6206 30.0515 46.3103 30.0515 46.3103 29.5343Z" fill="black"/>
</g>
<defs>
<clipPath id="clip0_4879_90375">
<rect width="75" height="75" fill="white"/>
</clipPath>
</defs>
</svg>
