<svg width="68" height="68" viewBox="0 0 68 68" fill="none" xmlns="http://www.w3.org/2000/svg">
<g clip-path="url(#clip0_4879_90335)">
<path d="M33.9921 67.9842C52.7654 67.9842 67.9842 52.7654 67.9842 33.9921C67.9842 15.2188 52.7654 0 33.9921 0C15.2188 0 0 15.2188 0 33.9921C0 52.7654 15.2188 67.9842 33.9921 67.9842Z" fill="#FFFFFE"/>
<path d="M30.0674 12.8658C31.1277 11.9954 32.1563 11.0934 33.359 10.4288C33.7071 10.1756 34.1028 10.4921 34.4034 10.6661C35.3846 11.315 36.2708 12.0904 37.1412 12.8658C38.5338 12.6443 39.9105 12.3594 41.319 12.217C42.221 13.3564 42.4742 14.8281 43.1546 16.0941C44.4048 16.5372 45.7341 16.7746 46.9368 17.3443C47.2217 17.4709 47.554 17.7241 47.5382 18.0881C47.6331 19.4648 47.3957 20.8258 47.3957 22.2026C48.2345 23.247 49.4688 23.8958 50.2759 24.9719C50.5449 25.2726 50.2126 25.6524 50.086 25.9372C49.453 26.9659 48.8042 27.9945 48.1237 29.0073C48.6143 30.3366 49.3739 31.6184 49.5163 33.0427C48.5035 34.1188 47.0159 34.5935 45.7816 35.3531C45.7974 36.6033 45.8132 37.8376 45.8765 39.0878C44.4048 39.9582 42.6324 39.8158 40.9866 39.8632C39.8472 41.0501 39.2934 42.6959 37.9641 43.7087C36.3816 43.5821 34.9731 42.6959 33.5805 41.9996C32.2038 42.5693 30.8903 43.3447 29.4186 43.5979C27.8361 42.87 27.4879 40.8602 26.1744 39.9107C24.6236 39.7683 23.0253 39.7525 21.5377 39.2302C21.4902 37.9326 21.4902 36.6508 21.5852 35.3689C20.5724 34.7834 19.4805 34.3403 18.4677 33.7231C18.1828 33.4858 17.7081 33.2484 17.7714 32.8211C18.0562 31.4918 18.7209 30.2891 19.2589 29.0389C18.5943 28.042 17.9454 27.0292 17.3124 26.0164C17.1542 25.7157 16.8852 25.2884 17.17 24.9878C17.9771 23.975 19.0848 23.2628 20.0818 22.4241C19.9236 20.8733 19.702 19.3224 19.702 17.7716C21.0946 16.9803 22.6613 16.5847 24.1488 16.0466C24.8293 14.8439 24.9876 13.3564 25.8896 12.2803C27.3138 12.2328 28.6906 12.6601 30.0832 12.8816L30.0674 12.8658ZM30.463 14.9864C27.4404 15.6985 24.7977 17.6133 23.0094 20.1137C21.1579 22.8197 20.5407 26.2538 21.0788 29.4662C21.6168 31.8874 22.6771 34.2454 24.4179 36.0494C26.934 38.803 30.7795 40.1481 34.4667 39.9898C36.8247 39.7525 39.2301 39.1353 41.1607 37.6794C43.4553 36.0811 44.9745 33.5649 45.8607 30.9538C47.5223 25.8581 45.4176 19.813 40.9392 16.8537C37.9324 14.7648 34.0236 14.0843 30.4788 14.9705L30.463 14.9864Z" fill="black"/>
<path d="M31.0485 17.0912C34.3401 16.1892 37.964 17.0912 40.5276 19.3225C43.6926 22.0128 44.927 26.6495 43.6768 30.5899C42.933 32.8845 41.4138 34.9418 39.3724 36.2553C36.6663 37.8852 33.2798 38.2017 30.273 37.2681C27.0764 36.2078 24.3387 33.5808 23.405 30.3051C22.5979 27.7414 23.0252 24.8929 24.1646 22.5033C25.5255 19.8289 28.105 17.7717 31.0485 17.0912ZM31.1118 23.8168C29.5926 24.2124 28.0417 24.4656 26.5542 24.972C26.5542 25.067 26.5383 25.2569 26.5225 25.3518C27.4087 26.6495 28.5956 27.6939 29.5609 28.9283C29.371 30.4791 29.0387 32.0616 29.3077 33.6283C30.7478 33.1219 32.1562 32.5047 33.5963 31.9667C35.1313 32.4256 36.5714 33.1852 38.1381 33.5492C38.233 31.9983 37.9007 30.4791 37.7899 28.9441C38.8502 27.6465 40.1162 26.5071 41.0182 25.0828C39.4515 24.4023 37.7108 24.3549 36.1283 23.7693C35.1471 22.5033 34.5616 21 33.5805 19.734C32.536 20.9525 31.9347 22.4559 31.1276 23.8168H31.1118Z" fill="black"/>
<path d="M14.2424 51.1148C16.1098 47.8548 18.1829 44.7215 20.2559 41.5881C21.8701 41.873 23.5159 41.8413 25.1142 42.2211C26.1745 43.2181 26.7125 44.674 27.8203 45.6235C28.8805 45.8767 29.9883 45.7501 31.0644 45.7818C28.8805 49.469 26.8708 53.2828 24.6869 56.97C23.5159 54.9286 22.5189 52.7764 21.4112 50.7033C19.0216 50.7983 16.632 51.099 14.2424 51.1148Z" fill="black"/>
<path d="M41.9995 42.1896C43.7086 41.968 45.4335 41.794 47.1426 41.5408C49.184 44.7058 51.2096 47.8708 53.1403 51.0832C50.7191 51.0516 48.2978 50.7984 45.8924 50.6876C44.6423 52.7132 43.7402 54.9445 42.5692 57.0176C40.4328 53.2987 38.2648 49.5957 36.1284 45.8768C37.2362 45.8293 38.3597 45.8452 39.4517 45.592C40.5436 44.6583 41.1449 43.2973 41.9995 42.1738V42.1896Z" fill="black"/>
</g>
<defs>
<clipPath id="clip0_4879_90335">
<rect width="68" height="68" fill="white"/>
</clipPath>
</defs>
</svg>
