<svg width="67" height="81" viewBox="0 0 67 81" fill="none" xmlns="http://www.w3.org/2000/svg">
<g clip-path="url(#clip0_4879_88712)">
<path d="M31.4532 1.26827C33.7011 3.52899 37.6122 11.1199 35.3642 13.3806C33.1163 15.6413 25.5683 11.708 23.3203 9.4473C21.0724 7.18658 22.0958 4.55826 24.3438 2.29754C26.5917 0.0368181 29.2052 -0.992454 31.4532 1.26827Z" fill="#FFFFFE"/>
<path d="M43.6615 9.44724C42.437 10.6787 39.6225 12.4064 36.9725 13.3622C37.6487 11.8734 37.4477 9.63104 36.3328 6.81893C35.7846 5.45882 35.0535 4.02519 34.3042 2.81212C34.7245 2.1872 35.1632 1.65419 35.5287 1.26821C37.7766 -0.974131 40.3901 0.0367608 42.6381 2.29748C44.886 4.53982 45.9278 7.16814 43.6615 9.44724Z" fill="#FFFFFE"/>
<path d="M60.987 34.5541C60.2377 34.5541 59.6528 33.9475 59.6528 33.2123V31.3008C59.6528 30.5656 60.2559 29.9591 60.987 29.9591C61.718 29.9591 62.3211 30.5656 62.3211 31.3008V33.2123C62.3211 33.9475 61.718 34.5541 60.987 34.5541Z" fill="#FFFFFE"/>
<path d="M58.2822 37.3478H56.3815C55.6322 37.3478 55.0474 36.7412 55.0474 36.006C55.0474 35.2708 55.6505 34.6643 56.3815 34.6643H58.2822C59.0315 34.6643 59.6164 35.2708 59.6164 36.006C59.6164 36.7412 59.0133 37.3478 58.2822 37.3478Z" fill="#FFFFFE"/>
<path d="M61.0602 41.9795C60.3109 41.9795 59.7261 41.3729 59.7261 40.6378V38.7262C59.7261 37.9911 60.3292 37.3845 61.0602 37.3845C61.7913 37.3845 62.3944 37.9911 62.3944 38.7262V40.6378C62.3944 41.3729 61.7913 41.9795 61.0602 41.9795Z" fill="#FFFFFE"/>
<path d="M65.6475 37.2743H63.7467C62.9974 37.2743 62.4126 36.6677 62.4126 35.9325C62.4126 35.1974 63.0157 34.5908 63.7467 34.5908H65.6475C66.3968 34.5908 66.9816 35.1974 66.9816 35.9325C66.9816 36.6677 66.3785 37.2743 65.6475 37.2743Z" fill="#FFFFFE"/>
<path d="M5.93962 41.2261C5.1903 41.2261 4.60547 40.6195 4.60547 39.8843V37.9728C4.60547 37.2376 5.20858 36.6311 5.93962 36.6311C6.67066 36.6311 7.27377 37.2376 7.27377 37.9728V39.8843C7.27377 40.6195 6.67066 41.2261 5.93962 41.2261Z" fill="#FFFFFE"/>
<path d="M3.23486 44.0015H1.33415C0.584834 44.0015 0 43.3949 0 42.6597C0 41.9245 0.60311 41.318 1.33415 41.318H3.23486C3.98418 41.318 4.56901 41.9245 4.56901 42.6597C4.56901 43.3949 3.9659 44.0015 3.23486 44.0015Z" fill="#FFFFFE"/>
<path d="M6.01286 48.6332C5.26354 48.6332 4.67871 48.0266 4.67871 47.2914V45.3799C4.67871 44.6447 5.28182 44.0382 6.01286 44.0382C6.7439 44.0382 7.34701 44.6447 7.34701 45.3799V47.2914C7.34701 48.0266 6.7439 48.6332 6.01286 48.6332Z" fill="#FFFFFE"/>
<path d="M10.6001 43.928H8.69939C7.95007 43.928 7.36523 43.3214 7.36523 42.5862C7.36523 41.851 7.96834 41.2445 8.69939 41.2445H10.6001C11.3494 41.2445 11.9342 41.851 11.9342 42.5862C11.9342 43.3214 11.3311 43.928 10.6001 43.928Z" fill="#FFFFFE"/>
<path d="M24.1974 45.2511C24.636 45.6739 24.8188 46.2804 24.7274 46.8869L24.6908 47.0891H42.3272L42.2907 46.8869C42.181 46.2804 42.3821 45.6739 42.8207 45.2511L48.1025 40.068C49.1807 39.002 48.5959 37.1456 47.0973 36.9251L39.8051 35.859C39.202 35.7671 38.6903 35.3995 38.4344 34.8481L35.1813 28.1946C34.5051 26.8161 32.5678 26.8161 31.8916 28.1946L28.6385 34.8481C28.3643 35.3995 27.8526 35.7671 27.2678 35.859L19.9756 36.9251C18.477 37.1456 17.8739 39.002 18.9704 40.068L24.2522 45.2511H24.1974Z" fill="#FFFFFE"/>
<path d="M58.7393 15.0531H8.2608C6.78044 15.0531 5.57422 16.2662 5.57422 17.7549V23.4527C5.57422 24.9415 6.78044 26.1545 8.2608 26.1545H58.721C60.2013 26.1545 61.4076 24.9415 61.4076 23.4527V17.7549C61.4076 16.2662 60.2013 15.0531 58.721 15.0531H58.7393ZM38.5808 24.776H28.4193V16.3948H38.5808V24.776Z" fill="#FFFFFE"/>
<path d="M55.8332 49.7726H11.1666C9.6862 49.7726 8.47998 50.9857 8.47998 52.4744V78.2981C8.47998 79.7869 9.6862 80.9999 11.1666 80.9999H55.8332C57.3136 80.9999 58.5198 79.7869 58.5198 78.2981V52.4744C58.5198 50.9857 57.3136 49.7726 55.8332 49.7726ZM38.5806 79.6398H28.4192V51.1143H38.5806V79.6398Z" fill="#FFFFFE"/>
</g>
<defs>
<clipPath id="clip0_4879_88712">
<rect width="67" height="81" fill="white"/>
</clipPath>
</defs>
</svg>
