<svg width="50" height="65" viewBox="0 0 50 65" fill="none" xmlns="http://www.w3.org/2000/svg">
<g clip-path="url(#clip0_4879_93020)">
<path d="M26.3828 1.68657L29.1321 7.29831C29.364 7.76596 29.7946 8.08329 30.2914 8.1501L36.4358 9.05198C37.6945 9.2357 38.208 10.8057 37.2971 11.7075L32.8419 16.0834C32.4776 16.4341 32.312 16.9518 32.3948 17.4529L33.4382 23.6325C33.6535 24.9018 32.3285 25.8705 31.2023 25.2692L25.7038 22.3465C25.2566 22.1126 24.7101 22.1126 24.2629 22.3465L18.7644 25.2692C17.6382 25.8705 16.3133 24.9018 16.5286 23.6325L17.572 17.4529C17.6548 16.9518 17.4892 16.4341 17.1248 16.0834L12.6697 11.7075C11.7588 10.8057 12.2557 9.2357 13.5309 9.05198L19.6753 8.1501C20.1722 8.08329 20.6193 7.76596 20.8347 7.29831L23.5839 1.68657C24.147 0.534163 25.7866 0.534163 26.3497 1.68657H26.3828Z" fill="black"/>
<path d="M25.0085 44.9942C28.4477 44.9942 31.2357 42.1826 31.2357 38.7144C31.2357 35.2461 28.4477 32.4346 25.0085 32.4346C21.5693 32.4346 18.7812 35.2461 18.7812 38.7144C18.7812 42.1826 21.5693 44.9942 25.0085 44.9942Z" fill="black"/>
<path d="M18.7811 64.2181V61.429C18.7811 58.1054 17.6218 54.8986 15.5185 52.3433L1.65627 35.5749C0.778499 34.506 0.844746 32.9527 1.82189 31.984C2.91497 30.8817 4.70364 30.9485 5.71391 32.1344L14.7401 42.7566C17.3071 45.7796 21.0667 47.5165 25.0084 47.5165C28.9501 47.5165 32.7096 45.7796 35.2767 42.7566L44.3028 32.1344C45.3131 30.9485 47.1018 30.8817 48.1949 31.984C49.1554 32.9527 49.2383 34.5227 48.3605 35.5749L34.4983 52.3433C32.3949 54.8986 31.2356 58.1054 31.2356 61.429V64.2181H18.7977H18.7811Z" fill="black"/>
<path d="M6.21067 14.1962H1.04339C0.46373 14.1962 0 13.7286 0 13.144C0 12.5594 0.46373 12.0918 1.04339 12.0918H6.1941C6.77377 12.0918 7.2375 12.5594 7.2375 13.144C7.2375 13.7286 6.77377 14.1962 6.1941 14.1962H6.21067Z" fill="black"/>
<path d="M4.25645 26.2714C3.89209 26.2714 3.54429 26.0877 3.34555 25.737C3.064 25.2359 3.22962 24.5846 3.72647 24.3006L8.19815 21.6952C8.69501 21.3946 9.34092 21.5783 9.62247 22.0793C9.90402 22.5804 9.7384 23.2317 9.24154 23.5157L4.76987 26.1211C4.60425 26.2213 4.42207 26.2547 4.23989 26.2547L4.25645 26.2714Z" fill="black"/>
<path d="M45.7435 26.2713C45.5614 26.2713 45.3792 26.2212 45.2136 26.1377L40.7419 23.5323C40.245 23.2483 40.0629 22.597 40.361 22.0959C40.6425 21.5949 41.2884 21.4112 41.7853 21.7118L46.257 24.3172C46.7538 24.6012 46.936 25.2525 46.6379 25.7536C46.4391 26.0876 46.0913 26.288 45.727 26.288L45.7435 26.2713Z" fill="black"/>
<path d="M48.9566 14.1962H43.8058C43.2262 14.1962 42.7625 13.7286 42.7625 13.144C42.7625 12.5594 43.2262 12.0918 43.8058 12.0918H48.9566C49.5362 12.0918 49.9999 12.5594 49.9999 13.144C49.9999 13.7286 49.5362 14.1962 48.9566 14.1962Z" fill="black"/>
<path d="M41.2718 4.70981C40.9075 4.70981 40.5597 4.52609 40.3609 4.17536C40.0794 3.67431 40.245 3.02295 40.7419 2.73902L45.2135 0.150273C45.7104 -0.150356 46.3563 0.0333615 46.6378 0.53441C46.9194 1.03546 46.7538 1.68682 46.2569 1.97075L41.7852 4.5762C41.6196 4.67641 41.4374 4.70981 41.2553 4.70981H41.2718Z" fill="black"/>
<path d="M8.72817 4.70981C8.54599 4.70981 8.36381 4.65971 8.19819 4.5762L3.72651 1.97075C3.22966 1.68682 3.04748 1.03546 3.34559 0.53441C3.62714 0.0333615 4.27305 -0.150356 4.7699 0.150273L9.24158 2.75572C9.73843 3.03965 9.92061 3.69101 9.6225 4.19206C9.42376 4.52609 9.07596 4.72651 8.7116 4.72651L8.72817 4.70981Z" fill="black"/>
<path d="M6.21067 14.1962H1.04339C0.46373 14.1962 0 13.7286 0 13.144C0 12.5594 0.46373 12.0918 1.04339 12.0918H6.1941C6.77377 12.0918 7.2375 12.5594 7.2375 13.144C7.2375 13.7286 6.77377 14.1962 6.1941 14.1962H6.21067Z" fill="black"/>
<path d="M36.552 64.218C35.3595 54.03 30.6394 46.4141 25.0084 46.4141C19.3774 46.4141 14.6573 54.03 13.4648 64.218H36.552Z" fill="black"/>
</g>
<defs>
<clipPath id="clip0_4879_93020">
<rect width="50" height="64.2177" fill="white"/>
</clipPath>
</defs>
</svg>
