<svg width="75" height="75" viewBox="0 0 75 75" fill="none" xmlns="http://www.w3.org/2000/svg">
<g clip-path="url(#clip0_4879_90379)">
<path d="M37.5 75C58.2107 75 75 58.2107 75 37.5C75 16.7893 58.2107 0 37.5 0C16.7893 0 0 16.7893 0 37.5C0 58.2107 16.7893 75 37.5 75Z" fill="#FFFFFE"/>
<path d="M35.8448 15.9825C36.0517 15.6377 36.4138 15.3791 36.8276 15.3963C37.3103 15.4653 37.6724 15.8791 37.8276 16.3274C38.2586 17.4653 38.5862 18.6377 39.1207 19.7239C40.3276 20.0687 41.569 20.2411 42.7759 20.5687C43.069 20.6549 43.4138 20.7411 43.5517 21.0343C43.6896 21.3963 43.7069 21.8791 43.4138 22.1722C42.8621 22.7929 42.1552 23.2239 41.569 23.7929C41.1552 24.1894 40.6207 24.4998 40.3448 25.017C40.2414 25.7067 40.4655 26.3791 40.4828 27.0515C40.5 27.7411 40.5172 28.448 40.4828 29.1549C40.431 29.7929 39.6207 30.2929 39.0517 29.8963C38.069 29.2756 37.1896 28.4998 36.2241 27.8618C35.9655 27.6722 35.6207 27.6722 35.3448 27.8274C34.3103 28.3101 33.3276 28.8791 32.2759 29.3101C31.8103 29.4998 31.2069 29.4136 30.9655 28.948C30.7759 28.1205 31.0862 27.3101 31.2414 26.4998C31.3793 25.7239 31.6379 24.948 31.6379 24.1549C30.931 23.0343 29.931 22.1205 29.1724 21.0343C28.8103 20.5343 29.1724 19.7411 29.7586 19.6205C30.9828 19.2929 32.2759 19.5343 33.5345 19.3618C33.8276 19.3274 34.0172 19.0687 34.1724 18.8446C34.7586 17.9136 35.2586 16.9308 35.8793 16.017L35.8448 15.9825Z" fill="black"/>
<path d="M50.6553 21.7582C51.3794 21.7065 52.1725 22.0341 52.5346 22.6893C52.8104 23.2238 52.9656 23.8789 52.6725 24.4479C52.2587 25.6031 50.6725 25.9824 49.707 25.31C48.9311 24.7755 48.6898 23.6375 49.0863 22.81C49.3794 22.2238 50.0001 21.8617 50.638 21.7582H50.6553Z" fill="black"/>
<path d="M51.3449 30.0858C52.6207 29.8617 54 29.7927 55.2242 30.2755C55.8276 30.5168 56.4138 31.0686 56.3621 31.7582C56.4138 32.4996 55.7759 33.172 55.0518 33.2755C54.3621 33.2237 53.7414 32.7927 53.0345 32.7927C52.4138 32.7582 51.8104 32.9134 51.2414 33.1203C49.3621 33.8272 47.6725 35.0513 46.4311 36.6375C45.7587 37.3444 45.3104 38.241 44.6035 38.9134C44.0173 38.1892 43.4138 37.4823 42.8276 36.7582C43.3966 35.6375 44.2069 34.6375 45.0863 33.741C46.8621 32.0858 48.9311 30.6203 51.3449 30.0858Z" fill="black"/>
<path d="M24.0001 30.7412C24.2587 30.6722 24.5346 30.6722 24.8104 30.7067C25.7242 30.8791 26.2932 32.086 25.7932 32.8964C25.3966 33.6378 24.3621 33.8447 23.6553 33.4481C23.138 33.086 22.7587 32.3447 23.0346 31.724C23.1897 31.2757 23.5518 30.9136 24.0001 30.7412Z" fill="black"/>
<path d="M34.6725 32.3617C35.0173 32.2066 35.4139 32.1893 35.7932 32.2411C36.2415 32.31 36.4828 32.7411 36.7415 33.0514C40.1035 36.948 43.5001 40.81 46.8449 44.7066C47.0518 44.9652 47.2932 45.2238 47.4311 45.5342C47.6035 46.0342 47.4484 46.6376 47.0346 46.9824C46.7587 47.1893 46.4311 47.3273 46.1208 47.4652C44.6035 48.1204 43.138 48.879 41.6208 49.5169C41.0001 48.5169 39.9656 47.879 38.8966 47.448C38.4139 47.2583 37.8621 47.2411 37.3621 47.0514C35.7932 46.4824 34.4828 45.0514 34.2932 43.3617C34.1897 42.1893 34.5863 41.0169 34.2932 39.8617C34.0518 38.9997 33.6725 38.1204 32.9484 37.5342C32.569 37.2066 32.1035 36.9997 31.7415 36.6376C32.3966 35.448 33.1725 34.3273 33.9139 33.1893C34.138 32.879 34.2932 32.4997 34.6725 32.3617Z" fill="black"/>
<path d="M30.2759 39.0859C31.138 39.4997 31.9483 40.3963 31.7414 41.4135C31.4311 43.1549 31.7414 45.0342 32.7242 46.517C33.8276 48.2411 35.638 49.6204 37.6897 49.9308C38.1897 50.0342 38.569 50.4135 38.9655 50.7066C33.4311 52.948 27.9483 55.2928 22.4138 57.5515C21.9483 57.7239 21.5 57.9825 21 58.0515C20.1552 58.1377 19.3966 57.3273 19.4311 56.4997C19.5345 56.0687 19.7931 55.7066 20.0345 55.3273C21.2931 53.3446 22.5345 51.3446 23.7931 49.3446C26 45.9652 28.1035 42.4997 30.2759 39.1032V39.0859ZM27.8449 49.4135C27.2586 49.6377 26.9311 50.2928 27.0518 50.9135C27.0862 51.6204 27.8104 52.1204 28.4828 52.1204C29.0345 52.017 29.6035 51.6549 29.7242 51.0859C29.8104 50.6032 29.7414 50.0342 29.3449 49.7239C28.9655 49.3101 28.3449 49.2584 27.8449 49.4308V49.4135Z" fill="black"/>
<path d="M53.4482 40.1895C54.4827 39.8964 55.5517 40.9481 55.3965 41.9826C55.2931 42.4654 55.0172 42.9826 54.5344 43.1895C53.862 43.4481 52.9482 43.3274 52.5344 42.6722C51.8965 41.8102 52.3448 40.3791 53.4482 40.1895Z" fill="black"/>
</g>
<defs>
<clipPath id="clip0_4879_90379">
<rect width="75" height="75" fill="white"/>
</clipPath>
</defs>
</svg>
