<svg width="66" height="66" viewBox="0 0 66 66" fill="none" xmlns="http://www.w3.org/2000/svg">
<g clip-path="url(#clip0_4879_90323)">
<path d="M32.9923 65.9846C51.2135 65.9846 65.9846 51.2135 65.9846 32.9923C65.9846 14.7712 51.2135 0 32.9923 0C14.7712 0 0 14.7712 0 32.9923C0 51.2135 14.7712 65.9846 32.9923 65.9846Z" fill="#FFFFFE"/>
<path d="M47.4763 35.2961C46.4318 35.2961 45.587 36.1409 45.587 37.1854V41.5782H20.4127V37.1854C20.4127 36.1409 19.568 35.2961 18.5235 35.2961C17.4791 35.2961 16.6343 36.1409 16.6343 37.1854V43.4674C16.6343 44.5119 17.4791 45.3567 18.5235 45.3567H47.4763C48.5207 45.3567 49.3655 44.5119 49.3655 43.4674V37.1854C49.3655 36.1409 48.5207 35.2961 47.4763 35.2961Z" fill="black"/>
<path d="M31.6559 38.5525C31.6559 38.5525 31.7481 38.6446 31.7942 38.6753C31.8095 38.6907 31.8403 38.7061 31.8556 38.7214C31.8863 38.7368 31.9171 38.7675 31.9324 38.7829C31.9631 38.7982 31.9785 38.8136 32.0092 38.8289C32.0399 38.8443 32.0553 38.8597 32.086 38.875C32.1167 38.875 32.1474 38.9057 32.1628 38.9211C32.1935 38.9211 32.2242 38.9518 32.2396 38.9672C32.2703 38.9672 32.301 38.9825 32.3164 38.9979C32.3471 38.9979 32.3778 39.0132 32.4086 39.0286C32.4393 39.0286 32.47 39.0286 32.5007 39.044C32.5314 39.044 32.5622 39.0593 32.5929 39.0593C32.6236 39.0593 32.6543 39.0593 32.7004 39.0593C32.7311 39.0593 32.7618 39.0593 32.7772 39.0593C32.8386 39.0593 32.9001 39.0593 32.9615 39.0593C33.0229 39.0593 33.0844 39.0593 33.1458 39.0593C33.1765 39.0593 33.2073 39.0593 33.2226 39.0593C33.2533 39.0593 33.2841 39.0593 33.3301 39.0593C33.3609 39.0593 33.3916 39.0593 33.4223 39.044C33.453 39.044 33.4837 39.044 33.5144 39.0286C33.5452 39.0286 33.5759 39.0132 33.6066 38.9979C33.6373 38.9979 33.668 38.9825 33.6834 38.9672C33.7141 38.9672 33.7448 38.9365 33.7602 38.9211C33.7909 38.9211 33.8216 38.8904 33.8524 38.875C33.8831 38.875 33.8984 38.8443 33.9292 38.8289C33.9599 38.8136 33.9906 38.7982 34.006 38.7829C34.0367 38.7675 34.0674 38.7368 34.0828 38.7214C34.0981 38.7061 34.1288 38.6907 34.1442 38.6753C34.1903 38.6293 34.2363 38.5985 34.2824 38.5525L42.5612 30.2737C43.2985 29.5364 43.2985 28.3384 42.5612 27.6011C41.824 26.8638 40.6259 26.8638 39.8887 27.6011L34.8507 32.639V15.9586C34.8507 14.9141 34.006 14.0693 32.9615 14.0693C31.9171 14.0693 31.0723 14.9141 31.0723 15.9586V32.639L26.0343 27.6011C25.2971 26.8638 24.099 26.8638 23.3618 27.6011C22.6245 28.3384 22.6245 29.5364 23.3618 30.2737L31.6406 38.5525H31.6559Z" fill="black"/>
</g>
<defs>
<clipPath id="clip0_4879_90323">
<rect width="66" height="66" fill="white"/>
</clipPath>
</defs>
</svg>
