<svg width="68" height="68" viewBox="0 0 68 68" fill="none" xmlns="http://www.w3.org/2000/svg">
<g clip-path="url(#clip0_4879_90342)">
<path d="M33.9921 67.9842C52.7654 67.9842 67.9842 52.7654 67.9842 33.9921C67.9842 15.2188 52.7654 0 33.9921 0C15.2188 0 0 15.2188 0 33.9921C0 52.7654 15.2188 67.9842 33.9921 67.9842Z" fill="#FFFFFE"/>
<path d="M28.6276 54.8655H25.9849V57.5083H28.6276V54.8655Z" fill="black"/>
<path d="M39.2146 49.564H36.5718V52.2067H39.2146V49.564Z" fill="black"/>
<path fill-rule="evenodd" clip-rule="evenodd" d="M33.9289 49.5639H31.2703V52.2225H33.9289V54.8653H36.5716V52.2225H33.9289V49.5639H36.5716V46.9211H33.9289V49.5639Z" fill="black"/>
<path fill-rule="evenodd" clip-rule="evenodd" d="M44.4999 35.9545C44.4999 35.9545 44.3575 35.9228 44.2784 35.9545L43.5979 36.0811V37.5686L44.2467 37.442C44.3417 37.4262 44.4208 37.3946 44.4999 37.3471C44.5791 37.2996 44.6265 37.2521 44.674 37.173C44.7215 37.1097 44.7689 37.0148 44.7848 36.9356C44.8164 36.8407 44.8164 36.7299 44.8164 36.6191C44.8164 36.3818 44.7689 36.1919 44.6582 36.0811C44.6107 36.0178 44.5474 35.9861 44.4841 35.9703L44.4999 35.9545Z" fill="black"/>
<path fill-rule="evenodd" clip-rule="evenodd" d="M50.5293 36.3501L52.096 32.7578C52.2701 32.3464 52.2542 31.9349 52.0327 31.6343C51.8111 31.3178 51.4472 31.1912 51.0357 31.2703L39.2303 33.5807V31.9508C39.2303 31.4918 39.6101 31.1279 40.0532 31.1279H44.2468C44.5791 31.1279 44.8798 30.938 45.0064 30.6215C45.133 30.305 45.0539 29.9726 44.8323 29.7194L33.201 17.376C32.8845 17.0436 32.3464 17.0436 32.0299 17.376L20.3985 29.7194C20.1612 29.9726 20.082 30.305 20.2245 30.6215C20.3511 30.938 20.6517 31.1279 20.9841 31.1279H25.1777C25.6366 31.1279 26.0006 31.4918 26.0006 31.9508V36.1602L15.7935 38.1542V48.1239L26.0006 51.4313V52.2384H28.4851L28.6434 52.2859V54.8812H31.2861V52.2384H28.6434V49.5956H31.2861V46.9529H33.9289V44.6108L35.4639 44.3101H36.5717V46.9529H39.2144V43.5663L51.0199 41.2559C51.4313 41.1767 51.7953 40.9077 52.0169 40.5121C52.2384 40.1165 52.2701 39.705 52.0802 39.3569L50.5135 36.3659L50.5293 36.3501ZM47.6808 34.3562L47.57 37.9643H47.5384L46.668 38.1383C46.6364 36.9515 46.5889 35.7646 46.5572 34.5777L47.6808 34.3562ZM33.0427 39.2461V40.1481H33.0111L31.4602 40.4488V41.699L33.3434 41.335V42.2687C32.3464 42.4586 31.3653 42.6485 30.3683 42.8542V37.7269C31.3653 37.537 32.3464 37.3471 33.3434 37.1414V38.075L31.476 38.439V39.5468L33.0585 39.2303L33.0427 39.2461ZM27.1242 38.3599L27.9312 41.7148L28.7541 38.0434L29.9885 37.806C29.4979 39.6101 29.0073 41.4141 28.5009 43.2182L27.3774 43.4397C26.9026 41.8889 26.4437 40.338 25.9689 38.803V38.5973L27.1242 38.3757V38.3599ZM22.7723 39.2144C23.7693 39.0245 24.7504 38.8346 25.7474 38.6289V39.5626L23.88 39.9266V41.0343L25.4625 40.7178V41.6198H25.4309L23.88 41.9205V43.1707L25.7632 42.8067V43.7404C24.7662 43.9303 23.7851 44.1202 22.7881 44.3259V39.1986L22.7723 39.2144ZM19.3857 39.8791L20.4935 39.6575V43.8512L22.2817 43.503V44.4367C21.3164 44.6266 20.3511 44.8165 19.4016 45.0064V39.8791H19.3857ZM33.834 42.1895V37.0622L34.9417 36.8407V41.0343L36.7299 40.6862V41.6198C35.7646 41.8097 34.7993 41.9996 33.8498 42.1895H33.834ZM41.7939 35.5589V39.0562C41.7939 39.3252 41.7464 39.5626 41.6831 39.7841C41.604 40.0057 41.4932 40.1956 41.3508 40.3697C41.2084 40.5437 41.0343 40.6862 40.8286 40.7969C40.6229 40.9077 40.3855 40.9868 40.1165 41.0501C39.8474 41.0976 39.5942 41.1134 39.3885 41.0818C39.3252 41.0818 39.2619 41.066 39.2144 41.0501C39.072 41.0027 38.9454 40.9552 38.8505 40.8602C38.708 40.7495 38.5973 40.5912 38.5181 40.3855C38.439 40.1956 38.4074 39.9582 38.4074 39.6892V36.1919L39.2144 36.0336L39.4993 35.9703V39.4993C39.4993 39.7683 39.5468 39.9582 39.6259 40.0532C39.6576 40.1006 39.7208 40.1323 39.8 40.1323C39.8791 40.1323 39.974 40.1323 40.1006 40.1323C40.2114 40.1165 40.3222 40.069 40.4013 40.0373C40.4804 39.9899 40.5437 39.9424 40.5754 39.8791C40.6229 39.8158 40.6545 39.7367 40.6703 39.6259C40.6862 39.5309 40.702 39.4043 40.702 39.2777V35.7488L41.8097 35.5272V35.5747L41.7939 35.5589ZM45.8135 37.1255C45.7343 37.3471 45.6236 37.537 45.4811 37.7111C45.3387 37.8851 45.1488 38.0276 44.9431 38.1383C44.7374 38.2491 44.5 38.3282 44.231 38.3915L43.5821 38.5181V40.2905L42.4744 40.5121V35.3848L44.2151 35.0366C44.4683 34.9892 44.7057 34.9892 44.9114 35.0366C45.1172 35.0841 45.2912 35.1632 45.4495 35.2898C45.6077 35.4164 45.7185 35.5747 45.7976 35.7804C45.8768 35.9703 45.9084 36.1919 45.9084 36.4451C45.9084 36.6983 45.8768 36.9356 45.7976 37.1414L45.8135 37.1255ZM47.6333 39.2144C47.6333 39.2144 47.57 39.3569 47.5226 39.4202C47.4751 39.4835 47.4118 39.5309 47.3485 39.5784C47.2852 39.6101 47.2061 39.6417 47.1269 39.6575C47.0478 39.6734 46.9687 39.6734 46.8896 39.6575C46.8104 39.6575 46.7471 39.6101 46.6997 39.5626C46.6522 39.5151 46.6047 39.4676 46.5731 39.4043C46.5414 39.341 46.5256 39.2619 46.5256 39.1828C46.5256 39.1037 46.5256 39.0245 46.5731 38.9454C46.6047 38.8663 46.6364 38.803 46.6838 38.7397C46.7313 38.6764 46.7946 38.6289 46.8579 38.5814C46.9212 38.534 47.0003 38.5181 47.0795 38.5023C47.1586 38.4865 47.2377 38.4865 47.301 38.5023C47.3643 38.5023 47.4434 38.5498 47.4909 38.5973C47.5542 38.6447 47.5859 38.6922 47.6175 38.7713C47.6492 38.8346 47.665 38.9138 47.665 38.9929C47.665 39.072 47.665 39.1511 47.6333 39.2303V39.2144Z" fill="black"/>
</g>
<defs>
<clipPath id="clip0_4879_90342">
<rect width="68" height="68" fill="white"/>
</clipPath>
</defs>
</svg>
