<svg width="55" height="52" viewBox="0 0 55 52" fill="none" xmlns="http://www.w3.org/2000/svg">
<g clip-path="url(#clip0_4879_92984)">
<path d="M52.6541 36.2969C52.3266 40.3471 49.6887 43.9167 45.5508 44.689C44.5336 44.8777 36.2751 45.1008 35.8786 44.8091L35.12 41.7886C36.482 41.9946 38.1372 42.9041 39.4647 42.3206C40.344 41.9431 41.1543 40.7246 41.2923 39.815C41.4992 38.4764 41.4992 33.7913 41.2923 32.4699C41.0509 30.9081 39.6716 29.5867 38.0337 29.7583C35.7579 29.9986 33.1545 31.0969 30.8442 31.423C30.4131 31.3887 30.3959 30.6507 30.0338 30.3246C29.3442 29.724 26.3615 29.7068 25.4822 29.9299C24.7753 30.1187 24.327 30.7537 24.1546 31.423L16.6892 29.724C15.241 29.4666 13.741 30.9081 13.5341 32.2639C13.3617 33.4481 13.3617 38.9398 13.5859 40.0725C13.6721 40.5015 14.1548 41.3768 14.4479 41.6857C15.9134 43.2131 17.9823 42.0804 19.7237 41.7715L18.8444 44.8777C13.4134 44.586 7.17217 46.285 3.65499 40.982C3.05156 40.0725 2.17226 37.9616 2.17226 36.8976V27.6989H52.43L52.6714 27.9392C52.5162 30.6507 52.8955 33.6025 52.6714 36.2969H52.6541Z" fill="black"/>
<path d="M1.4999 22.8083L52.8956 22.7739C55.43 22.997 55.3093 26.4465 52.7404 26.498H1.93092C-0.431104 26.2234 -0.68972 23.5462 1.4999 22.8083Z" fill="black"/>
<path d="M7.29294 21.5383V10.7951C7.29294 10.366 8.39637 9.31917 8.93084 9.33633C12.8101 9.59376 17.2238 8.94161 21.0513 9.31917C21.8444 9.38782 22.9823 10.0743 22.9823 10.9495V21.3152L22.7409 21.5554H7.29294V21.5383ZM19.2238 14.931C18.9824 14.7594 18.6893 14.7594 18.4134 14.7251C16.7755 14.5878 13.3273 14.5535 11.7239 14.7251C10.5687 14.8452 10.5687 15.9951 11.7239 16.1152C13.1204 16.2696 17.2238 16.304 18.5686 16.1152C19.0686 16.0465 19.31 15.7891 19.3789 15.2743L19.2238 14.8967V14.931Z" fill="black"/>
<path d="M47.5337 15.4975H30.6029V13.0948C30.6029 12.8374 31.8615 9.5252 32.0856 8.99319C32.5339 7.89485 33.0856 6.83082 33.5856 5.7668L44.2061 5.73248C44.3441 5.73248 44.4303 5.80112 44.5165 5.88693C44.8958 6.213 46.5164 10.4519 46.775 11.2242C47.2578 12.6486 47.7405 13.9186 47.5509 15.4803L47.5337 15.4975Z" fill="black"/>
<path d="M24.2065 32.8474V39.4546C21.4651 39.9866 18.7238 40.9134 15.948 41.1365C15.3101 40.9992 14.8273 40.0038 14.7411 39.386C14.5687 37.9616 14.6032 34.5121 14.7411 33.0362C14.8273 32.1609 15.1549 31.3715 16.017 31.0454L24.1892 32.8302L24.2065 32.8474Z" fill="black"/>
<path d="M39.3959 31.4748C39.5338 31.595 39.7752 32.024 39.8269 32.1956C40.2234 33.2596 40.189 37.6187 40.0683 38.923C39.9476 40.2273 39.4476 41.257 37.9821 41.1368C35.7063 40.9481 32.9305 39.7296 30.6029 39.4378V32.8306L38.3442 31.0286C38.689 31.0286 39.1545 31.2346 39.3959 31.4577V31.4748Z" fill="black"/>
<path d="M47.5336 16.8875V21.298L47.2922 21.5383H30.5856V16.8875H47.5336Z" fill="black"/>
<path d="M29.9649 11.0178C29.8269 11.5669 29.189 12.9399 29.189 13.4204V21.5379H24.2236V11.0178H29.9649Z" fill="black"/>
<path d="M36.3443 52.0001H31.3789L28.9307 42.7843C29.8962 42.3209 30.4823 41.9605 30.6892 40.845L33.6202 41.6345L36.3443 51.9829V52.0001Z" fill="black"/>
<path d="M18.4824 51.9997L21.1548 41.5139L24.1375 40.8618C24.3272 41.7714 24.6892 42.6638 25.7754 42.5608L23.2065 51.9997H18.4652H18.4824Z" fill="black"/>
<path d="M29.189 31.2685V41.085L28.9649 41.3252H25.7063L25.465 41.085V31.5088L25.7063 31.2685H29.189Z" fill="black"/>
<path d="M45.0336 2.04245V4.29063C44.8957 4.51373 44.7233 4.49657 44.4991 4.53089C41.1026 4.92561 36.9303 4.20482 33.4476 4.53089L32.9131 4.29063V2.04245H45.0336Z" fill="black"/>
<path d="M27.3272 4.20472V9.61065H23.8273C23.741 9.61065 23.31 8.94134 23.1204 8.76972C22.6893 8.40933 22.1549 8.30636 21.7238 7.98029V4.18756H27.3099L27.3272 4.20472Z" fill="black"/>
<path d="M21.7411 2.96919V0.429262C21.7411 0.429262 21.9825 0.154676 22.0514 0.120353C22.31 0.000221039 26.6031 -0.0341023 26.9134 0.0688677C27.4824 0.257646 27.4996 2.54015 27.0858 2.98635H21.7238L21.7411 2.96919Z" fill="black"/>
<path d="M26.7065 44.8775C26.603 44.7746 27.1202 42.5607 27.4133 42.5607C27.8789 43.8135 28.8616 45.2379 26.7065 44.8775Z" fill="black"/>
</g>
<defs>
<clipPath id="clip0_4879_92984">
<rect width="54.1353" height="51.4412" fill="white" transform="scale(1.01086)"/>
</clipPath>
</defs>
</svg>
