<svg width="73" height="75" viewBox="0 0 73 75" fill="none" xmlns="http://www.w3.org/2000/svg">
<g clip-path="url(#clip0_4879_88686)">
<path d="M58.5453 28.9657H31.8141V15.7503C31.8141 10.427 36.1539 6.08382 41.49 6.11762C46.7924 6.15142 51.0646 10.5453 51.0646 15.8517V17.0009C51.0646 17.6093 51.5543 18.1163 52.1791 18.1163H56.0799C56.6878 18.1163 57.1944 17.6262 57.1944 17.0009V15.7503C57.1944 7.06399 50.119 0 41.4394 0C32.7935 0 25.7012 7.23299 25.7012 15.8855V28.9657H24.3334C19.6559 28.9657 15.8564 32.7681 15.8564 37.4493V66.4995C15.8564 71.1807 19.6559 74.9831 24.3334 74.9831H58.5284C63.206 74.9831 67.0054 71.1807 67.0054 66.4995V37.4493C67.0054 32.7681 63.206 28.9657 58.5284 28.9657H58.5453Z" fill="#FFFFFE"/>
<path d="M67.3602 20.8201C66.6678 20.8201 66.1106 20.2624 66.1106 19.5696V17.7951C66.1106 17.1022 66.6678 16.5446 67.3602 16.5446C68.0525 16.5446 68.6098 17.1022 68.6098 17.7951V19.5696C68.6098 20.2624 68.0525 20.8201 67.3602 20.8201Z" fill="black"/>
<path d="M64.8271 23.4226H63.054C62.3617 23.4226 61.8044 22.865 61.8044 22.1721C61.8044 21.4792 62.3617 20.9215 63.054 20.9215H64.8271C65.5195 20.9215 66.0767 21.4792 66.0767 22.1721C66.0767 22.865 65.5195 23.4226 64.8271 23.4226Z" fill="black"/>
<path d="M67.4276 27.732C66.7352 27.732 66.178 27.1743 66.178 26.4814V24.707C66.178 24.0141 66.7352 23.4564 67.4276 23.4564C68.1199 23.4564 68.6772 24.0141 68.6772 24.707V26.4814C68.6772 27.1743 68.1199 27.732 67.4276 27.732Z" fill="black"/>
<path d="M71.7336 23.355H69.9605C69.2682 23.355 68.7109 22.7973 68.7109 22.1044C68.7109 21.4116 69.2682 20.8539 69.9605 20.8539H71.7336C72.426 20.8539 72.9832 21.4116 72.9832 22.1044C72.9832 22.7973 72.426 23.355 71.7336 23.355Z" fill="black"/>
<path d="M67.3602 20.8201C66.6678 20.8201 66.1106 20.2624 66.1106 19.5696V17.7951C66.1106 17.1022 66.6678 16.5446 67.3602 16.5446C68.0525 16.5446 68.6098 17.1022 68.6098 17.7951V19.5696C68.6098 20.2624 68.0525 20.8201 67.3602 20.8201Z" fill="#FFFFFE"/>
<path d="M64.8271 23.4226H63.054C62.3617 23.4226 61.8044 22.865 61.8044 22.1721C61.8044 21.4792 62.3617 20.9215 63.054 20.9215H64.8271C65.5195 20.9215 66.0767 21.4792 66.0767 22.1721C66.0767 22.865 65.5195 23.4226 64.8271 23.4226Z" fill="#FFFFFE"/>
<path d="M67.4276 27.732C66.7352 27.732 66.178 27.1743 66.178 26.4814V24.707C66.178 24.0141 66.7352 23.4564 67.4276 23.4564C68.1199 23.4564 68.6772 24.0141 68.6772 24.707V26.4814C68.6772 27.1743 68.1199 27.732 67.4276 27.732Z" fill="#FFFFFE"/>
<path d="M71.7336 23.355H69.9605C69.2682 23.355 68.7109 22.7973 68.7109 22.1044C68.7109 21.4116 69.2682 20.8539 69.9605 20.8539H71.7336C72.426 20.8539 72.9832 21.4116 72.9832 22.1044C72.9832 22.7973 72.426 23.355 71.7336 23.355Z" fill="#FFFFFE"/>
<path d="M1.1819 53.301C3.2927 51.1886 10.3512 47.5383 12.462 49.6338C14.5728 51.7294 10.9085 58.8102 8.79768 60.9227C6.68687 63.0351 4.23834 62.0719 2.14442 59.9594C0.0505082 57.847 -0.928904 55.3966 1.1819 53.301Z" fill="black"/>
<path d="M8.79777 41.8601C9.94605 43.0092 11.5671 45.6456 12.4452 48.1298C11.0437 47.4876 8.96664 47.6904 6.34924 48.7382C5.08276 49.2452 3.74873 49.938 2.60045 50.6478C2.00943 50.2422 1.51972 49.8366 1.16511 49.4987C-0.928808 47.3862 0.0168315 44.9358 2.12763 42.8403C4.22155 40.7278 6.67008 39.7645 8.78088 41.877L8.79777 41.8601Z" fill="black"/>
<path d="M1.1819 53.301C3.2927 51.1886 10.3512 47.5383 12.462 49.6338C14.5728 51.7294 10.9085 58.8102 8.79768 60.9227C6.68687 63.0351 4.23834 62.0719 2.14442 59.9594C0.0505082 57.847 -0.928904 55.3966 1.1819 53.301Z" fill="#FFFFFE"/>
<path d="M8.79777 41.8601C9.94605 43.0092 11.5671 45.6456 12.4452 48.1298C11.0437 47.4876 8.96664 47.6904 6.34924 48.7382C5.08276 49.2452 3.74873 49.938 2.60045 50.6478C2.00943 50.2422 1.51972 49.8366 1.16511 49.4987C-0.928808 47.3862 0.0168315 44.9358 2.12763 42.8403C4.22155 40.7278 6.67008 39.7645 8.78088 41.877L8.79777 41.8601Z" fill="#FFFFFE"/>
<path d="M63.9488 48.434H19.2505V53.7742H63.9488V48.434Z" fill="#232323"/>
</g>
<defs>
<clipPath id="clip0_4879_88686">
<rect width="73" height="75" fill="white"/>
</clipPath>
</defs>
</svg>
