<svg width="67" height="75" viewBox="0 0 67 75" fill="none" xmlns="http://www.w3.org/2000/svg">
<g clip-path="url(#clip0_4879_88659)">
<path d="M35.1578 1.03377L38.4559 7.70158C38.7322 8.25293 39.2503 8.63198 39.8547 8.71813L47.2281 9.78635C48.7477 10.0103 49.3521 11.8711 48.2469 12.9394L42.9111 18.1254C42.4794 18.5562 42.2722 19.1592 42.3758 19.7622L43.6364 27.102C43.8954 28.6182 42.3067 29.7553 40.9425 29.0489L34.3462 25.5858C33.8108 25.3101 33.1547 25.3101 32.6193 25.5858L26.023 29.0489C24.6588 29.7553 23.0701 28.6182 23.3291 27.102L24.5897 19.7622C24.6933 19.1592 24.4861 18.5562 24.0544 18.1254L18.7186 12.9394C17.6134 11.8711 18.2178 10.0103 19.7374 9.78635L27.1108 8.71813C27.7152 8.63198 28.2333 8.25293 28.5096 7.70158L31.8078 1.03377C32.4812 -0.34459 34.4498 -0.34459 35.1232 1.03377H35.1578Z" fill="black"/>
<path d="M44.6552 37.1985H22.3276V75.0172H44.6552V37.1985Z" fill="black"/>
<path d="M67 48.501H47.3662V74.9999H67V48.501Z" fill="black"/>
<path d="M19.6338 59.3212H0V75.0172H19.6338V59.3212Z" fill="black"/>
<path d="M13.1756 5.3412C12.9511 5.3412 12.7094 5.28951 12.5022 5.1689L9.42844 3.39426C8.77225 3.01521 8.56504 2.1882 8.92767 1.55071C9.30756 0.895985 10.1364 0.689231 10.7753 1.05105L13.8491 2.82569C14.5052 3.20474 14.7125 4.03175 14.3498 4.66925C14.0908 5.09998 13.6418 5.3412 13.1756 5.3412Z" fill="black"/>
<path d="M10.0328 17.04H6.47557C5.73304 17.04 5.12866 16.4369 5.12866 15.6961C5.12866 14.9552 5.73304 14.3522 6.47557 14.3522H10.0328C10.7753 14.3522 11.3797 14.9552 11.3797 15.6961C11.3797 16.4369 10.7753 17.04 10.0328 17.04Z" fill="black"/>
<path d="M10.1018 30.5306C9.63552 30.5306 9.18655 30.2894 8.92753 29.8587C8.54763 29.2212 8.77212 28.3942 9.4283 28.0151L12.502 26.2405C13.1409 25.8614 13.9698 26.0854 14.3497 26.7401C14.7296 27.3776 14.5051 28.2046 13.8489 28.5837L10.7752 30.3583C10.568 30.4789 10.3262 30.5306 10.1018 30.5306Z" fill="black"/>
<path d="M56.8983 30.5307C56.6738 30.5307 56.432 30.479 56.2248 30.3584L53.1511 28.5838C52.4949 28.2047 52.2877 27.3777 52.6503 26.7402C53.0302 26.1027 53.8418 25.8787 54.498 26.2406L57.5717 28.0152C58.2279 28.3943 58.4351 29.2213 58.0725 29.8588C57.8135 30.2895 57.3645 30.5307 56.8983 30.5307Z" fill="black"/>
<path d="M60.5072 17.04H56.9499C56.2074 17.04 55.603 16.4369 55.603 15.6961C55.603 14.9552 56.2074 14.3522 56.9499 14.3522H60.5072C61.2497 14.3522 61.8541 14.9552 61.8541 15.6961C61.8541 16.4369 61.2497 17.04 60.5072 17.04Z" fill="black"/>
<path d="M53.8073 5.34116C53.3411 5.34116 52.8921 5.09995 52.6331 4.66921C52.2532 4.01449 52.4777 3.2047 53.1339 2.82565L56.2076 1.05102C56.8638 0.671968 57.6754 0.895951 58.0553 1.55067C58.4352 2.20539 58.2107 3.01518 57.5545 3.39423L54.4808 5.16887C54.2736 5.28947 54.0318 5.34116 53.8073 5.34116Z" fill="black"/>
<path d="M35.1578 1.03377L38.4559 7.70158C38.7322 8.25293 39.2503 8.63198 39.8547 8.71813L47.2281 9.78635C48.7477 10.0103 49.3521 11.8711 48.2469 12.9394L42.9111 18.1254C42.4794 18.5562 42.2722 19.1592 42.3758 19.7622L43.6364 27.102C43.8954 28.6182 42.3067 29.7553 40.9425 29.0489L34.3462 25.5858C33.8108 25.3101 33.1547 25.3101 32.6193 25.5858L26.023 29.0489C24.6588 29.7553 23.0701 28.6182 23.3291 27.102L24.5897 19.7622C24.6933 19.1592 24.4861 18.5562 24.0544 18.1254L18.7186 12.9394C17.6134 11.8711 18.2178 10.0103 19.7374 9.78635L27.1108 8.71813C27.7152 8.63198 28.2333 8.25293 28.5096 7.70158L31.8078 1.03377C32.4812 -0.34459 34.4498 -0.34459 35.1232 1.03377H35.1578Z" fill="#FFFFFE"/>
<path d="M44.6552 37.1985H22.3276V75.0172H44.6552V37.1985Z" fill="#FFFFFE"/>
<path d="M67 48.501H47.3662V74.9999H67V48.501Z" fill="#FFFFFE"/>
<path d="M19.6338 59.3212H0V75.0172H19.6338V59.3212Z" fill="#FFFFFE"/>
<path d="M13.1756 5.3412C12.9511 5.3412 12.7094 5.28951 12.5022 5.1689L9.42844 3.39426C8.77225 3.01521 8.56504 2.1882 8.92767 1.55071C9.30756 0.895985 10.1364 0.689231 10.7753 1.05105L13.8491 2.82569C14.5052 3.20474 14.7125 4.03175 14.3498 4.66925C14.0908 5.09998 13.6418 5.3412 13.1756 5.3412Z" fill="#FFFFFE"/>
<path d="M10.0328 17.04H6.47557C5.73304 17.04 5.12866 16.4369 5.12866 15.6961C5.12866 14.9552 5.73304 14.3522 6.47557 14.3522H10.0328C10.7753 14.3522 11.3797 14.9552 11.3797 15.6961C11.3797 16.4369 10.7753 17.04 10.0328 17.04Z" fill="#FFFFFE"/>
<path d="M10.1018 30.5306C9.63552 30.5306 9.18655 30.2894 8.92753 29.8587C8.54763 29.2212 8.77212 28.3942 9.4283 28.0151L12.502 26.2405C13.1409 25.8614 13.9698 26.0854 14.3497 26.7401C14.7296 27.3776 14.5051 28.2046 13.8489 28.5837L10.7752 30.3583C10.568 30.4789 10.3262 30.5306 10.1018 30.5306Z" fill="#FFFFFE"/>
<path d="M56.8983 30.5307C56.6738 30.5307 56.432 30.479 56.2248 30.3584L53.1511 28.5838C52.4949 28.2047 52.2877 27.3777 52.6503 26.7402C53.0302 26.1027 53.8418 25.8787 54.498 26.2406L57.5717 28.0152C58.2279 28.3943 58.4351 29.2213 58.0725 29.8588C57.8135 30.2895 57.3645 30.5307 56.8983 30.5307Z" fill="#FFFFFE"/>
<path d="M60.5072 17.04H56.9499C56.2074 17.04 55.603 16.4369 55.603 15.6961C55.603 14.9552 56.2074 14.3522 56.9499 14.3522H60.5072C61.2497 14.3522 61.8541 14.9552 61.8541 15.6961C61.8541 16.4369 61.2497 17.04 60.5072 17.04Z" fill="#FFFFFE"/>
<path d="M53.8073 5.34116C53.3411 5.34116 52.8921 5.09995 52.6331 4.66921C52.2532 4.01449 52.4777 3.2047 53.1339 2.82565L56.2076 1.05102C56.8638 0.671968 57.6754 0.895951 58.0553 1.55067C58.4352 2.20539 58.2107 3.01518 57.5545 3.39423L54.4808 5.16887C54.2736 5.28947 54.0318 5.34116 53.8073 5.34116Z" fill="#FFFFFE"/>
</g>
<defs>
<clipPath id="clip0_4879_88659">
<rect width="67" height="75" fill="white"/>
</clipPath>
</defs>
</svg>
