<svg width="61" height="76" viewBox="0 0 61 76" fill="none" xmlns="http://www.w3.org/2000/svg">
<g clip-path="url(#clip0_4879_88644)">
<path d="M3.07211e-05 50.4752C-0.118383 48.2454 1.72549 46.0494 4.00918 45.9649C6.19138 45.8804 8.37357 45.9311 10.5727 45.8973C12.0782 48.3637 14.0913 50.4752 16.4426 52.1645C15.0724 52.249 13.6853 52.08 12.332 52.249C10.5727 52.7726 10.7757 55.712 12.6872 55.7626C24.4271 55.712 36.167 55.5937 47.9238 55.4924C48.7188 55.5937 49.2771 54.8842 49.5985 54.2592C50.0214 53.2794 49.091 52.2659 48.1944 51.9618C46.9595 51.8604 45.7416 51.9618 44.5067 51.9449C46.7565 50.1881 48.7865 48.0934 50.2244 45.6102C52.3897 45.5764 54.5719 45.5257 56.7371 45.5595C59.0377 45.6271 60.8309 47.7724 60.8139 50.0022C60.8816 59.952 60.8816 60.5939 60.9831 70.5606C61.1015 73.0945 58.8686 75.4595 56.365 75.6115C39.0935 75.7297 21.8051 75.8987 4.53359 76.0169C2.35139 75.7466 0.473686 73.9222 0.186109 71.7431C0.084612 61.5568 0.101528 60.6784 3.07211e-05 50.4921V50.4752Z" fill="#FFFFFE"/>
<path d="M30.4325 9.59502C29.7389 9.59502 29.1638 9.03756 29.1638 8.34496L29.113 1.26695C29.113 0.57435 29.6713 0 30.3648 0C31.0584 0 31.6336 0.557457 31.6336 1.25006L31.6843 8.32807C31.6843 9.02067 31.1261 9.59502 30.4325 9.59502Z" fill="#FFFFFE"/>
<path d="M17.9314 13.058C17.4916 13.058 17.0687 12.8384 16.8318 12.433L13.2456 6.33474C12.8904 5.7435 13.0934 4.96644 13.7023 4.61169C14.2944 4.25695 15.0726 4.45966 15.4278 5.06779L19.014 11.166C19.3693 11.7573 19.1663 12.5343 18.5573 12.8891C18.3543 13.0073 18.1513 13.058 17.9314 13.058Z" fill="#FFFFFE"/>
<path d="M8.83038 22.3152C8.61047 22.3152 8.39056 22.2645 8.20448 22.1463L2.06388 18.6664C1.4549 18.3285 1.2519 17.5515 1.59023 16.9602C1.92855 16.3521 2.68979 16.1494 3.29877 16.4872L9.43937 19.9671C10.0484 20.305 10.2513 21.082 9.91302 21.6733C9.6762 22.0787 9.27021 22.2983 8.83038 22.3152Z" fill="#FFFFFE"/>
<path d="M52.2374 21.9605C51.7976 21.9605 51.3747 21.7409 51.1378 21.3354C50.7826 20.7442 50.9856 19.9671 51.5777 19.6124L57.6675 16.0311C58.2596 15.6764 59.0377 15.8791 59.393 16.4704C59.7482 17.0616 59.5452 17.8387 58.9531 18.1934L52.8633 21.7746C52.6603 21.8929 52.4573 21.9436 52.2374 21.9436V21.9605Z" fill="#FFFFFE"/>
<path d="M42.9842 12.8553C42.7643 12.8553 42.5613 12.8046 42.3583 12.6864C41.7493 12.3485 41.5463 11.5715 41.8847 10.9802L45.3694 4.83131C45.7077 4.22317 46.4859 4.02046 47.078 4.35831C47.6869 4.69616 47.8899 5.47323 47.5516 6.06447L44.0669 12.2134C43.83 12.6188 43.4071 12.8553 42.9842 12.8553Z" fill="#FFFFFE"/>
<path d="M29.9416 13.5986C18.9292 13.6831 10.0989 22.67 10.1835 33.6502C10.268 44.6304 19.2506 53.4653 30.2631 53.3808C41.2755 53.2963 50.1058 44.3263 50.0212 33.3292C49.9366 22.3321 40.9372 13.5142 29.9416 13.5986ZM40.0745 31.5386L36.4882 35.0861C36.2007 35.3901 36.0653 35.7956 36.1499 36.201L37.0465 41.1674C37.2156 42.1979 36.1499 42.9749 35.2364 42.5019L30.7367 40.1876C30.3815 40.0018 29.9416 40.0018 29.5864 40.1876L25.1374 42.5695C24.207 43.0594 23.1244 42.2823 23.2936 41.2688L24.1055 36.2854C24.1563 35.88 24.021 35.4746 23.7165 35.1705L20.0795 31.6738C19.3352 30.9474 19.7242 29.6804 20.773 29.5284L25.7633 28.7682C26.1693 28.7006 26.5246 28.4473 26.7106 28.0925L28.8928 23.5484C29.3496 22.6024 30.686 22.5855 31.1427 23.5315L33.4095 28.0418C33.5956 28.3966 33.9508 28.65 34.3737 28.7006L39.3809 29.3932C40.4128 29.5284 40.8188 30.7953 40.0914 31.5217L40.0745 31.5386Z" fill="#FFFFFE"/>
</g>
<defs>
<clipPath id="clip0_4879_88644">
<rect width="61" height="76" fill="white"/>
</clipPath>
</defs>
</svg>
