<svg width="68" height="68" viewBox="0 0 68 68" fill="none" xmlns="http://www.w3.org/2000/svg">
<g clip-path="url(#clip0_4879_90328)">
<path d="M33.9921 67.9842C52.7654 67.9842 67.9842 52.7654 67.9842 33.9921C67.9842 15.2188 52.7654 0 33.9921 0C15.2188 0 0 15.2188 0 33.9921C0 52.7654 15.2188 67.9842 33.9921 67.9842Z" fill="#FFFFFE"/>
<path d="M36.2866 41.5089C36.2866 41.5089 36.2866 41.4931 36.2866 41.4773C36.3183 41.4773 36.3341 41.4931 36.3657 41.5089H36.2866Z" fill="black"/>
<path d="M16.0939 27.1081C16.173 26.5701 16.268 26.032 16.3471 25.494C16.9801 24.9401 17.7239 24.8768 18.531 24.8926C26.0004 24.9084 33.4856 24.9084 40.955 24.8926C41.3664 24.8926 41.9361 25.2408 42.221 24.592C42.8381 22.9936 42.9964 21.3004 43.2971 19.6387C43.4711 18.7209 43.8035 17.9929 44.5631 17.4707C47.7914 17.4707 51.0197 17.4707 54.248 17.4707C55.3715 18.2778 55.15 19.3381 54.786 20.4142C52.7129 20.8731 50.6082 20.5724 48.5193 20.6199C46.2722 20.6832 46.2405 20.6357 45.9398 22.7088C44.9587 29.6718 43.1072 36.4765 41.9203 43.392C41.6987 44.7055 40.9233 45.1486 39.6573 45.1486C33.533 45.1328 27.4088 45.1486 21.2845 45.1486C20.5249 45.1486 19.7495 45.291 19.2273 44.4048C18.6734 43.4553 19.1165 42.759 19.5912 42.0153C23.1519 41.9836 26.7283 41.9361 30.2889 41.9045C32.8842 41.8887 35.4795 41.8728 38.059 41.9045C39.6731 41.9045 38.9927 40.5752 39.2142 39.8631C39.5149 38.8819 38.597 39.2459 38.1856 39.2459C34.5142 39.2459 30.8586 39.2617 27.1872 39.2934C24.8926 39.2775 22.598 39.2459 20.3034 39.2301C18.436 39.2301 18.0404 38.787 17.7714 37.0146C17.3441 34.2294 16.806 31.4758 16.3155 28.7064C16.3471 28.1684 16.3313 27.6145 16.0623 27.1239L16.0939 27.1081Z" fill="black"/>
<path d="M37.521 47.1426C39.2776 47.5541 40.4487 49.2157 40.2588 51.083C40.0847 52.7921 39.0402 53.7733 37.4894 54.3113C36.9039 54.3113 36.3183 54.3113 35.717 54.2955C35.4638 54.1531 35.1948 54.0265 34.9416 53.8841C33.2958 52.9504 32.5995 51.0989 33.2325 49.3898C33.8655 47.7123 35.7328 46.7312 37.4894 47.1426H37.521Z" fill="black"/>
<path d="M24.9084 47.0952C27.1397 47.111 28.7064 48.6144 28.6905 50.6874C28.6747 52.7922 27.0606 54.3272 24.9242 54.2955C22.8669 54.2639 21.237 52.5864 21.2528 50.5292C21.2686 48.1238 23.0727 47.1426 24.9084 47.0793V47.0952Z" fill="black"/>
</g>
<defs>
<clipPath id="clip0_4879_90328">
<rect width="68" height="68" fill="white"/>
</clipPath>
</defs>
</svg>
