<svg width="75" height="57" viewBox="0 0 75 57" fill="none" xmlns="http://www.w3.org/2000/svg">
<g clip-path="url(#clip0_4879_93002)">
<path d="M23.8259 1.2278C25.5778 -0.162516 28.1226 -0.325021 30.1512 0.523614C32.696 1.64309 34.7061 3.70148 36.0523 6.06683C36.5687 6.87935 36.8822 7.80021 37.417 8.59468C38.3206 6.59045 39.3348 4.58623 40.9761 3.05146C42.6542 1.30002 44.9778 -0.126404 47.4858 -1.18534e-05C49.1824 0.0180442 50.9896 0.794455 51.8748 2.29311C53.4054 5.01957 52.3174 8.77524 49.6618 10.4364C49.0349 10.8697 48.2972 11.1045 47.6702 11.5198C50.5655 11.4656 53.4792 11.5198 56.3929 11.4836C57.3702 11.4295 58.2554 12.3503 58.1632 13.3073C58.1632 15.1129 58.1632 16.9185 58.1632 18.7241C57.9972 19.4103 57.3702 20.0783 56.6141 20.0603C51.4322 20.0603 46.2502 20.0603 41.0499 20.0603C41.0499 17.5505 41.0867 15.0226 41.0499 12.5128C40.7732 12.3142 40.5519 11.9712 40.1647 12.0253C38.3206 12.0253 36.4765 12.0253 34.6323 12.0253C34.2635 11.9892 34.0238 12.3142 33.7656 12.5128C33.7472 15.0226 33.6918 17.5505 33.8578 20.0603C28.7865 20.0603 23.7152 20.0603 18.6439 20.0603C17.685 20.1686 16.7629 19.2658 16.8736 18.3269C16.8736 16.5213 16.8736 14.7157 16.8736 12.9101C17.0211 12.1337 17.7956 11.4295 18.6255 11.4836C21.4654 11.5198 24.3053 11.4475 27.1453 11.5378C26.3892 10.9961 25.4487 10.7795 24.7479 10.1656C22.7378 8.73912 21.7236 6.06683 22.369 3.71954C22.5903 2.78062 23.0329 1.84171 23.8259 1.2278ZM26.0388 3.82787C25.504 4.53206 25.5778 5.48903 25.7991 6.30156C26.131 7.29464 27.0899 7.85438 28.012 8.28772C29.9114 9.10025 31.9953 9.29886 34.0422 9.19053C33.5074 8.08911 32.8436 7.04185 32.0137 6.10294C31.0363 5.0918 30.0405 3.99038 28.6574 3.52092C27.8276 3.21397 26.7027 3.14174 26.0388 3.80982M44.9594 4.08066C43.0968 5.34458 41.7137 7.1863 40.7179 9.15441C42.728 9.24469 44.775 9.1183 46.6559 8.35995C47.6333 7.94466 48.666 7.33075 48.9426 6.24739C49.1639 5.34458 49.2561 4.09872 48.3156 3.53898C47.2276 2.90701 45.8999 3.4487 44.9409 4.0626L44.9594 4.08066Z" fill="black"/>
<path d="M19.0864 23.1115C19.0126 22.624 19.5106 22.2628 19.99 22.3351C24.1946 22.3351 28.4176 22.3351 32.6406 22.3351C33.0832 22.3351 33.5627 22.2628 33.9868 22.4615C33.9868 28.6908 33.9868 34.9201 33.9868 41.1495C34.0237 41.6009 33.452 41.7815 33.0832 41.7634C29.1737 41.7453 25.2457 41.7634 21.3362 41.7634C20.0822 41.7995 19.068 40.6259 19.1048 39.4522C19.1233 34.0173 19.1048 28.5825 19.1048 23.1476L19.0864 23.1115Z" fill="black"/>
<path d="M40.8838 22.3353C45.4572 22.3353 50.0122 22.3353 54.5856 22.3353C54.8806 22.3173 55.1757 22.4075 55.4523 22.5159C55.6367 25.0257 55.4892 27.5535 55.5445 30.0814C55.5445 33.2773 55.5445 36.4552 55.5445 39.6511C55.5998 40.4094 55.1572 41.1678 54.4565 41.5109C53.7373 41.872 52.9074 41.7456 52.1513 41.7636C48.7397 41.7636 45.3281 41.7636 41.935 41.7636C41.4371 41.8178 40.7547 41.5289 40.8285 40.9331C40.8469 34.7398 40.7732 28.5286 40.8654 22.3353H40.8838Z" fill="black"/>
<path d="M15.8594 38.1885L0 47.3068L15.9884 56.1904L15.9331 49.311L35.3332 49.2568L35.3885 44.9414L15.8962 44.9956L15.8594 38.1885Z" fill="black"/>
<path d="M59.1407 56.1904L75.0001 47.0721L59.0116 38.1885L59.0669 45.0678L39.6669 45.122L39.6116 49.4555L59.1038 49.3832L59.1407 56.1904Z" fill="black"/>
</g>
<defs>
<clipPath id="clip0_4879_93002">
<rect width="75" height="56.1905" fill="white"/>
</clipPath>
</defs>
</svg>
