<svg width="63" height="53" viewBox="0 0 63 53" fill="none" xmlns="http://www.w3.org/2000/svg">
<g clip-path="url(#clip0_4879_92973)">
<path d="M42.7035 19.4436L47.3266 15.803L46.6822 7.24917C46.8433 7.28139 47.0205 7.2975 47.1977 7.2975C48.5669 7.2975 49.6623 6.20209 49.6623 4.83283C49.6623 3.46357 48.5669 2.36816 47.1977 2.36816C45.8285 2.36816 44.7331 3.47968 44.7331 4.83283C44.7331 5.71882 45.2164 6.50816 45.9251 6.927L40.561 15.7869L42.7196 19.4436H42.7035Z" fill="black"/>
<path d="M62.2107 5.47703C61.9207 5.20318 61.5502 5.00987 61.1475 4.89711C60.9542 4.84878 60.7448 4.81657 60.5354 4.81657C59.1823 4.81657 58.0708 5.91197 58.0708 7.28123C58.0708 7.28123 58.0708 7.29734 58.0708 7.31345C58.0708 7.97392 58.3447 8.56995 58.7796 9.00489L47.4876 17.897L42.204 22.0692L39.4978 17.4782L32.0557 4.83267C32.6679 4.68769 33.1833 4.3333 33.5216 3.83392C33.7954 3.4312 33.9565 2.96404 33.9565 2.43244C33.9565 1.07929 32.8612 -0.0322266 31.4919 -0.0322266C30.1227 -0.0322266 29.0274 1.07929 29.0274 2.43244C29.0274 2.94793 29.1884 3.4312 29.4623 3.83392C29.8006 4.3333 30.3321 4.68769 30.9281 4.83267L23.4861 17.4782L20.7798 22.0692L15.4963 17.897L4.2204 9.021C4.65533 8.58606 4.92917 7.99003 4.92917 7.32956C4.92917 7.32956 4.92917 7.31345 4.92917 7.29734C4.92917 5.94419 3.81769 4.83267 2.46458 4.83267C2.25517 4.83267 2.04576 4.86489 1.85246 4.91322C1.44975 5.00987 1.09537 5.21929 0.789307 5.49314C0.306055 5.94419 -0.0161133 6.58855 -0.0161133 7.29734C-0.0161133 8.55384 0.918175 9.5687 2.12631 9.72979C2.22296 9.72979 2.33571 9.76201 2.44847 9.76201C2.98005 9.76201 3.4633 9.60092 3.86601 9.31096L9.23012 26.1448H53.7538L59.1179 9.31096C59.5206 9.58481 60.0038 9.76201 60.5354 9.76201C60.6482 9.76201 60.7448 9.7459 60.8576 9.72979C62.0657 9.5687 63 8.55384 63 7.29734C63 6.58855 62.6939 5.94419 62.1946 5.49314L62.2107 5.47703Z" fill="black"/>
<path d="M15.8184 7.2975C15.9955 7.2975 16.1566 7.28139 16.3338 7.24917L15.6895 15.803L20.3126 19.4436L22.4711 15.7869L17.107 6.927C17.8158 6.49205 18.299 5.71882 18.299 4.83283C18.299 3.47968 17.2037 2.36816 15.8345 2.36816C14.4652 2.36816 13.3699 3.47968 13.3699 4.83283C13.3699 6.18598 14.4652 7.2975 15.8345 7.2975H15.8184Z" fill="black"/>
<path d="M52.32 28.9805H10.6798C9.9549 28.9805 9.375 29.496 9.375 30.1242V51.0336C9.375 51.6619 9.9549 52.1774 10.6798 52.1774H52.3039C53.0288 52.1774 53.6087 51.6619 53.6087 51.0336V30.1242C53.6087 29.496 53.0288 28.9805 52.3039 28.9805H52.32ZM47.6325 40.4017C47.4392 41.0139 47.1331 41.5293 46.6982 41.9643C46.2633 42.3992 45.6673 42.7536 44.9263 43.0114C44.1692 43.2691 43.251 43.398 42.1395 43.398H40.9475V47.6185H36.6465V33.5232H42.1234C43.2349 33.5232 44.1692 33.6521 44.9263 33.9098C45.6834 34.1675 46.2794 34.5219 46.7143 34.9569C47.1492 35.3918 47.4714 35.9234 47.6486 36.5195C47.8258 37.1155 47.9224 37.7598 47.9224 38.4364C47.9224 39.113 47.8258 39.7896 47.6325 40.3856V40.4017ZM34.6491 47.6346H30.171V33.5393H34.6491V47.6346ZM24.678 47.6346H19.0239L14.7713 33.5393H19.5877L21.8912 42.8825L24.1947 33.5393H28.9306L24.6458 47.6346H24.678Z" fill="black"/>
<path d="M42.349 37.0029H41.1409V39.9348H42.349C43.0256 39.9348 43.4766 39.8059 43.7182 39.5643C43.9598 39.3226 44.0887 38.9521 44.0887 38.4688C44.0887 37.9856 43.9598 37.6151 43.7182 37.3734C43.4605 37.1318 43.0094 37.0029 42.349 37.0029Z" fill="black"/>
</g>
<defs>
<clipPath id="clip0_4879_92973">
<rect width="63" height="52.1769" fill="white"/>
</clipPath>
</defs>
</svg>
