<svg width="47" height="52" viewBox="0 0 47 52" fill="none" xmlns="http://www.w3.org/2000/svg">
<g clip-path="url(#clip0_4879_92962)">
<path d="M20.9117 8.55664H23.4684C23.9103 8.55664 24.2575 8.17672 24.2575 7.73072V5.8972C24.2575 5.45121 23.9103 5.07129 23.4684 5.07129H20.9117C20.4698 5.07129 20.1226 5.45121 20.1226 5.8972V7.73072C20.1226 8.17672 20.4698 8.55664 20.9117 8.55664Z" fill="black"/>
<path d="M17.7393 7.99503V8.04459L13.1309 14.0407L16.1926 13.9416L17.0607 17.014L22.111 10.2745H20.88C19.4438 10.2745 18.2286 9.31649 17.7393 7.97852V7.99503Z" fill="black"/>
<path d="M23.358 10.2912H22.127L26.4355 17.0307L27.3036 13.9583L30.3812 14.0574L26.546 8.06127V8.01172C26.041 9.3497 24.8257 10.3078 23.3738 10.3078L23.358 10.2912Z" fill="black"/>
<path d="M19.2861 7.82963V7.78007V7.74704V7.44971C6.45503 8.8042 11.8053 -0.11564 16.903 3.93133C17.8657 4.67465 18.7495 5.55011 19.2861 6.29343V5.97959C18.718 5.25278 17.8815 4.47643 17.0135 3.78266C15.7509 2.79157 14.3936 1.94914 13.6045 1.80047C13.4466 1.78396 13.2888 1.78396 13.2099 1.80047H13.1783C12.405 2.0978 11.679 2.56031 11.0951 3.20452C10.5269 3.8157 10.085 4.5425 9.81668 5.38493C9.7062 5.78137 9.61151 6.19432 9.57994 6.59076C9.5326 6.9872 9.5326 7.40015 9.57994 7.79659L9.59573 7.81311H19.2861V7.82963Z" fill="black"/>
<path d="M25.031 5.43477V5.46781H25.0468V5.51736V5.5504L25.0626 5.56692V5.61647V5.66603C25.7886 4.75752 26.9091 3.68384 28.077 2.75882C33.806 -1.78369 40.7187 7.71429 26.2463 7.31785C25.8201 7.30133 25.4413 7.30133 25.0941 7.30133V7.74732V7.78036V7.82991L37.3886 7.84643C37.4675 7.30133 37.4675 6.73971 37.436 6.21113C37.3728 5.66603 37.2782 5.13744 37.1045 4.59234C36.7573 3.53518 36.1892 2.57712 35.4632 1.81728C34.7056 1.00789 33.806 0.396712 32.8117 0.033311C32.6697 0.0167928 32.4803 0.0167928 32.2909 0.0498292C31.2966 0.215012 29.5606 1.25566 27.9507 2.5606C26.846 3.45258 25.757 4.4602 25.031 5.38522V5.43477Z" fill="black"/>
<path d="M29.6709 10.0264L33.3482 15.8077L28.4399 15.626L26.9879 20.8458L22.0165 13.0822L16.4137 20.532L15.0406 15.626L9.80087 15.8077L14.2042 10.0264H0V23.0592H47V10.0264H29.6709Z" fill="black"/>
<path d="M3.03027 46.7627C3.03027 49.2074 4.90838 51.173 7.24417 51.173H40.1347C42.2495 51.173 43.9856 49.3725 43.9856 47.1591V25.8506H3.03027V46.7461V46.7627ZM15.6878 34.5392L19.4124 33.9776C19.7123 33.928 19.9806 33.7298 20.1226 33.449L21.7956 29.9141C22.1428 29.1873 23.1371 29.1873 23.4685 29.9141L25.1414 33.449C25.2835 33.7298 25.536 33.9445 25.8516 33.9776L29.5763 34.5392C30.3496 34.6548 30.6495 35.6459 30.0971 36.2075L27.3983 38.9661C27.1774 39.1973 27.0827 39.5112 27.13 39.825L27.7613 43.7068C27.8876 44.4997 27.0827 45.1108 26.404 44.7474L23.0739 42.9139C22.8056 42.7653 22.4742 42.7653 22.2059 42.9139L18.8758 44.7474C18.1814 45.1274 17.3923 44.5162 17.5185 43.7068L18.1498 39.825C18.1972 39.5112 18.1025 39.1808 17.8815 38.9661L15.1827 36.2075C14.6303 35.6459 14.9302 34.6548 15.7035 34.5392H15.6878Z" fill="black"/>
</g>
<defs>
<clipPath id="clip0_4879_92962">
<rect width="47" height="51.1735" fill="white"/>
</clipPath>
</defs>
</svg>
