<svg width="75" height="75" viewBox="0 0 75 75" fill="none" xmlns="http://www.w3.org/2000/svg">
<g clip-path="url(#clip0_4879_90392)">
<path d="M37.5 75C58.2107 75 75 58.2107 75 37.5C75 16.7893 58.2107 0 37.5 0C16.7893 0 0 16.7893 0 37.5C0 58.2107 16.7893 75 37.5 75Z" fill="#FFFFFE"/>
<path d="M44.9807 22.4658C45.652 18.3301 42.8436 14.4334 38.708 13.7621C34.5724 13.0908 30.6756 15.8991 30.0043 20.0348C29.333 24.1704 32.1414 28.0671 36.277 28.7385C40.4126 29.4098 44.3094 26.6014 44.9807 22.4658Z" fill="black"/>
<path d="M41.2931 31.2241H33.7069C28.1207 31.2241 23.5862 35.7586 23.5862 41.3448V55.3965C23.5862 58.1034 25.7069 60.2931 28.3793 60.431V44.0172C28.3793 43.1724 29.0689 42.4827 29.9138 42.4827C30.7586 42.4827 31.4483 43.1724 31.4483 44.0172V61.3448H43.5689V44.0172C43.5689 43.1724 44.2586 42.4827 45.1034 42.4827C45.9483 42.4827 46.6379 43.1724 46.6379 44.0172V60.431C49.3103 60.2931 51.431 58.1034 51.431 55.3965V41.3448C51.431 35.7586 46.8965 31.2241 41.3103 31.2241H41.2931Z" fill="black"/>
</g>
<defs>
<clipPath id="clip0_4879_90392">
<rect width="75" height="75" fill="white"/>
</clipPath>
</defs>
</svg>
